<svg xmlns="http://www.w3.org/2000/svg" xmlns:xlink="http://www.w3.org/1999/xlink" contentStyleType="text/css" data-diagram-type="CLASS" height="214px" preserveAspectRatio="none" style="width:1334px;height:214px;background:#FFFFFF;" version="1.1" viewBox="0 0 1334 214" width="1334px" zoomAndPan="magnify"><defs/><g><rect fill="#FFFFFF" height="198.595" style="stroke:#181818;stroke-width:1.5;" width="1323.3937" x="5" y="10"/><path d="M69.6602,10 L69.6602,19.2969 L59.6602,29.2969 L5,29.2969" fill="none" style="stroke:#181818;stroke-width:1.5;"/><text fill="#000000" font-family="sans-serif" font-size="14" lengthAdjust="spacing" textLength="54.6602" x="8" y="23.9951">Dreams</text><!--class Cliente--><g class="entity" data-entity="Cliente" data-source-line="6" data-uid="ent0002" id="entity_Cliente"><rect fill="#F1F1F1" height="113.1875" rx="2.5" ry="2.5" style="stroke:#181818;stroke-width:0.5;" width="164.5234" x="18" y="60.5969"/><ellipse cx="71.4399" cy="76.5969" fill="#ADD1B2" rx="11" ry="11" style="stroke:#181818;stroke-width:1;"/><path d="M74.4087,82.2375 Q73.8306,82.5344 73.1899,82.675 Q72.5493,82.8313 71.8462,82.8313 Q69.3462,82.8313 68.0181,81.1906 Q66.7056,79.5344 66.7056,76.4094 Q66.7056,73.2844 68.0181,71.6281 Q69.3462,69.9719 71.8462,69.9719 Q72.5493,69.9719 73.1899,70.1281 Q73.8462,70.2844 74.4087,70.5813 L74.4087,73.3 Q73.7837,72.7219 73.1899,72.4563 Q72.5962,72.175 71.9712,72.175 Q70.6274,72.175 69.9399,73.2531 Q69.2524,74.3156 69.2524,76.4094 Q69.2524,78.5031 69.9399,79.5813 Q70.6274,80.6438 71.9712,80.6438 Q72.5962,80.6438 73.1899,80.3781 Q73.7837,80.0969 74.4087,79.5188 L74.4087,82.2375 Z " fill="#000000"/><text fill="#000000" font-family="sans-serif" font-size="14" lengthAdjust="spacing" textLength="49.1436" x="91.9399" y="81.4436">Cliente</text><line style="stroke:#181818;stroke-width:0.5;" x1="19" x2="181.5234" y1="92.5969" y2="92.5969"/><text fill="#000000" font-family="sans-serif" font-size="14" lengthAdjust="spacing" textLength="110.332" x="24" y="109.592">-nombre: String</text><text fill="#000000" font-family="sans-serif" font-size="14" lengthAdjust="spacing" textLength="94.6094" x="24" y="125.8889">-email: String</text><line style="stroke:#181818;stroke-width:0.5;" x1="19" x2="181.5234" y1="133.1906" y2="133.1906"/><text fill="#000000" font-family="sans-serif" font-size="14" lengthAdjust="spacing" textLength="152.5234" x="24" y="150.1857">+getNombre(): String</text><text fill="#000000" font-family="sans-serif" font-size="14" lengthAdjust="spacing" textLength="135.4336" x="24" y="166.4826">+getEmail(): String</text></g><!--class Venta--><g class="entity" data-entity="Venta" data-source-line="13" data-uid="ent0003" id="entity_Venta"><rect fill="#F1F1F1" height="145.7813" rx="2.5" ry="2.5" style="stroke:#181818;stroke-width:0.5;" width="412.709" x="303.52" y="44.2969"/><ellipse cx="485.0586" cy="60.2969" fill="#ADD1B2" rx="11" ry="11" style="stroke:#181818;stroke-width:1;"/><path d="M488.0273,65.9375 Q487.4492,66.2344 486.8086,66.375 Q486.1679,66.5313 485.4648,66.5313 Q482.9648,66.5313 481.6367,64.8906 Q480.3242,63.2344 480.3242,60.1094 Q480.3242,56.9844 481.6367,55.3281 Q482.9648,53.6719 485.4648,53.6719 Q486.1679,53.6719 486.8086,53.8281 Q487.4648,53.9844 488.0273,54.2813 L488.0273,57 Q487.4023,56.4219 486.8086,56.1563 Q486.2148,55.875 485.5898,55.875 Q484.2461,55.875 483.5586,56.9531 Q482.8711,58.0156 482.8711,60.1094 Q482.8711,62.2031 483.5586,63.2813 Q484.2461,64.3438 485.5898,64.3438 Q486.2148,64.3438 486.8086,64.0781 Q487.4023,63.7969 488.0273,63.2188 L488.0273,65.9375 Z " fill="#000000"/><text fill="#000000" font-family="sans-serif" font-size="14" lengthAdjust="spacing" textLength="41.1318" x="505.5586" y="65.1436">Venta</text><line style="stroke:#181818;stroke-width:0.5;" x1="304.52" x2="715.229" y1="76.2969" y2="76.2969"/><text fill="#000000" font-family="sans-serif" font-size="14" lengthAdjust="spacing" textLength="110.4277" x="309.52" y="93.292">-cliente: Cliente</text><text fill="#000000" font-family="sans-serif" font-size="14" lengthAdjust="spacing" textLength="174.0771" x="309.52" y="109.5889">-items: List&lt;ItemVenta&gt;</text><text fill="#000000" font-family="sans-serif" font-size="14" lengthAdjust="spacing" textLength="93.9463" x="309.52" y="125.8857">-total: double</text><line style="stroke:#181818;stroke-width:0.5;" x1="304.52" x2="715.229" y1="133.1875" y2="133.1875"/><text fill="#000000" font-family="sans-serif" font-size="14" lengthAdjust="spacing" textLength="400.709" x="309.52" y="150.1826">+agregarProducto(Producto producto, int cantidad): void</text><text fill="#000000" font-family="sans-serif" font-size="14" lengthAdjust="spacing" textLength="151.4844" x="309.52" y="166.4795">+calcularTotal(): void</text><text fill="#000000" font-family="sans-serif" font-size="14" lengthAdjust="spacing" textLength="169.5518" x="309.52" y="182.7764">+mostrarFactura(): void</text></g><!--class ItemVenta--><g class="entity" data-entity="ItemVenta" data-source-line="22" data-uid="ent0004" id="entity_ItemVenta"><rect fill="#F1F1F1" height="113.1875" rx="2.5" ry="2.5" style="stroke:#181818;stroke-width:0.5;" width="191.3613" x="776.23" y="60.5969"/><ellipse cx="831.1602" cy="76.5969" fill="#ADD1B2" rx="11" ry="11" style="stroke:#181818;stroke-width:1;"/><path d="M834.1289,82.2375 Q833.5508,82.5344 832.9102,82.675 Q832.2696,82.8313 831.5664,82.8313 Q829.0664,82.8313 827.7383,81.1906 Q826.4258,79.5344 826.4258,76.4094 Q826.4258,73.2844 827.7383,71.6281 Q829.0664,69.9719 831.5664,69.9719 Q832.2696,69.9719 832.9102,70.1281 Q833.5664,70.2844 834.1289,70.5813 L834.1289,73.3 Q833.5039,72.7219 832.9102,72.4563 Q832.3164,72.175 831.6914,72.175 Q830.3477,72.175 829.6602,73.2531 Q828.9727,74.3156 828.9727,76.4094 Q828.9727,78.5031 829.6602,79.5813 Q830.3477,80.6438 831.6914,80.6438 Q832.3164,80.6438 832.9102,80.3781 Q833.5039,80.0969 834.1289,79.5188 L834.1289,82.2375 Z " fill="#000000"/><text fill="#000000" font-family="sans-serif" font-size="14" lengthAdjust="spacing" textLength="73.001" x="851.6602" y="81.4436">ItemVenta</text><line style="stroke:#181818;stroke-width:0.5;" x1="777.23" x2="966.5913" y1="92.5969" y2="92.5969"/><text fill="#000000" font-family="sans-serif" font-size="14" lengthAdjust="spacing" textLength="139.2139" x="782.23" y="109.592">-producto: Producto</text><text fill="#000000" font-family="sans-serif" font-size="14" lengthAdjust="spacing" textLength="93.3516" x="782.23" y="125.8889">-cantidad: int</text><line style="stroke:#181818;stroke-width:0.5;" x1="777.23" x2="966.5913" y1="133.1906" y2="133.1906"/><text fill="#000000" font-family="sans-serif" font-size="14" lengthAdjust="spacing" textLength="161.1846" x="782.23" y="150.1857">+getSubtotal(): double</text><text fill="#000000" font-family="sans-serif" font-size="14" lengthAdjust="spacing" textLength="179.3613" x="782.23" y="166.4826">+getProducto(): Producto</text></g><!--class Producto--><g class="entity" data-entity="Producto" data-source-line="29" data-uid="ent0005" id="entity_Producto"><rect fill="#F1F1F1" height="145.7813" rx="2.5" ry="2.5" style="stroke:#181818;stroke-width:0.5;" width="290.8037" x="1027.59" y="44.2969"/><ellipse cx="1137.6042" cy="60.2969" fill="#ADD1B2" rx="11" ry="11" style="stroke:#181818;stroke-width:1;"/><path d="M1140.5729,65.9375 Q1139.9948,66.2344 1139.3542,66.375 Q1138.7135,66.5313 1138.0104,66.5313 Q1135.5104,66.5313 1134.1823,64.8906 Q1132.8698,63.2344 1132.8698,60.1094 Q1132.8698,56.9844 1134.1823,55.3281 Q1135.5104,53.6719 1138.0104,53.6719 Q1138.7135,53.6719 1139.3542,53.8281 Q1140.0104,53.9844 1140.5729,54.2813 L1140.5729,57 Q1139.9479,56.4219 1139.3542,56.1563 Q1138.7604,55.875 1138.1354,55.875 Q1136.7917,55.875 1136.1042,56.9531 Q1135.4167,58.0156 1135.4167,60.1094 Q1135.4167,62.2031 1136.1042,63.2813 Q1136.7917,64.3438 1138.1354,64.3438 Q1138.7604,64.3438 1139.3542,64.0781 Q1139.9479,63.7969 1140.5729,63.2188 L1140.5729,65.9375 Z " fill="#000000"/><text fill="#000000" font-family="sans-serif" font-size="14" lengthAdjust="spacing" textLength="62.2754" x="1158.1042" y="65.1436">Producto</text><line style="stroke:#181818;stroke-width:0.5;" x1="1028.59" x2="1317.3937" y1="76.2969" y2="76.2969"/><text fill="#000000" font-family="sans-serif" font-size="14" lengthAdjust="spacing" textLength="110.332" x="1033.59" y="93.292">-nombre: String</text><text fill="#000000" font-family="sans-serif" font-size="14" lengthAdjust="spacing" textLength="105.3418" x="1033.59" y="109.5889">-precio: double</text><text fill="#000000" font-family="sans-serif" font-size="14" lengthAdjust="spacing" textLength="122.0557" x="1033.59" y="125.8857">-categoria: String</text><text fill="#000000" font-family="sans-serif" font-size="14" lengthAdjust="spacing" textLength="69.624" x="1033.59" y="142.1826">-stock: int</text><line style="stroke:#181818;stroke-width:0.5;" x1="1028.59" x2="1317.3937" y1="149.4844" y2="149.4844"/><text fill="#000000" font-family="sans-serif" font-size="14" lengthAdjust="spacing" textLength="173.6738" x="1033.59" y="166.4795">+mostrarDetalles(): void</text><text fill="#000000" font-family="sans-serif" font-size="14" lengthAdjust="spacing" textLength="278.8037" x="1033.59" y="182.7764">+actualizarStock(int cantidad): boolean</text></g><!--link Cliente to Venta--><g class="link" data-entity-1="Cliente" data-entity-2="Venta" data-source-line="38" data-uid="lnk6" id="link_Cliente_Venta"><path codeLine="38" d="M182.77,117.1869 C217.73,117.1869 260.32,117.1869 303.03,117.1869" fill="none" id="Cliente-Venta" style="stroke:#181818;stroke-width:1;"/><text fill="#000000" font-family="sans-serif" font-size="13" lengthAdjust="spacing" textLength="8.271" x="190.4867" y="129.9273">1</text><text fill="#000000" font-family="sans-serif" font-size="13" lengthAdjust="spacing" textLength="23.0356" x="272.1839" y="129.5257">0..*</text></g><!--reverse link Venta to ItemVenta--><g class="link" data-entity-1="Venta" data-entity-2="ItemVenta" data-source-line="39" data-uid="lnk7" id="link_Venta_ItemVenta"><path codeLine="39" d="M728.66,117.1869 C749.29,117.1869 757.47,117.1869 776.07,117.1869" fill="none" id="Venta-backto-ItemVenta" style="stroke:#181818;stroke-width:1;"/><polygon fill="#181818" points="716.66,117.1869,722.66,121.1869,728.66,117.1869,722.66,113.1869,716.66,117.1869" style="stroke:#181818;stroke-width:1;"/><text fill="#000000" font-family="sans-serif" font-size="13" lengthAdjust="spacing" textLength="8.271" x="724.24" y="129.5257">1</text><text fill="#000000" font-family="sans-serif" font-size="13" lengthAdjust="spacing" textLength="23.0356" x="745.1885" y="129.8092">1..*</text></g><!--link ItemVenta to Producto--><g class="link" data-entity-1="ItemVenta" data-entity-2="Producto" data-source-line="40" data-uid="lnk8" id="link_ItemVenta_Producto"><path codeLine="40" d="M967.96,117.1869 C986.86,117.1869 1007.1,117.1869 1027.23,117.1869" fill="none" id="ItemVenta-Producto" style="stroke:#181818;stroke-width:1;"/><text fill="#000000" font-family="sans-serif" font-size="13" lengthAdjust="spacing" textLength="8.271" x="975.6304" y="129.8328">1</text><text fill="#000000" font-family="sans-serif" font-size="13" lengthAdjust="spacing" textLength="8.271" x="1011.5149" y="129.6439">1</text></g><!--SRC=[TL9BImCn4BxlhnXwQjMMzhg883wWe29KlCzcf-jWDYd9h8UA_zqakrct1Ky9yytCzqWqxGN4WkFcGw1cHqhOci9_iZcWmnQKHkzlHHnNdT1MMRFZ8y6wA9wHpJwq4DmxmjONHUg5EyraXE2x05Y2iMtbg8HTs62QLA8MMKygbz2GlAI- -UAy_X2R9-MVJFCUI70WKJrbcRbJaOLQNy8JUxdUXdiQk4cGMC6WeBPTfIanOUEeGVVgRDqfiVDyWSDmkG8s0WgDS8rrqFDbkKwZ2hNgDBgtk7G-HLhhnQ5xH2MTmn4QBOog1XkPguHCtxiRICie8UUowoh9X1CV0HazB2PxHixHsB_FSmYVWEraQrGWr5Z7UDBenQhFFr63stiAgZJvaoHY0gZvY6uNX-PdMLRMQa8JLURVCzlCOBbSmcozMbtC-jSk-h0YT16XJOB658k_FFlfT6J3lm00]--></g></svg>