<svg xmlns="http://www.w3.org/2000/svg" xmlns:xlink="http://www.w3.org/1999/xlink" contentStyleType="text/css" data-diagram-type="CLASS" height="2945.8333px" preserveAspectRatio="none" style="width:2245px;height:2945px;" version="1.1" viewBox="0 0 2245 2945" width="2245.8333px" zoomAndPan="magnify"><defs><linearGradient id="gcsmwnrfyeqbo0" x1="50%" x2="50%" y1="0%" y2="100%"><stop offset="0%" stop-color="#B8B8B8"/><stop offset="100%" stop-color="#6B6B6B"/></linearGradient><linearGradient id="gcsmwnrfyeqbo1" x1="50%" x2="50%" y1="0%" y2="100%"><stop offset="0%" stop-color="#7C9AB9"/><stop offset="100%" stop-color="#304D6D"/></linearGradient><linearGradient id="gcsmwnrfyeqbo2" x1="50%" x2="50%" y1="0%" y2="100%"><stop offset="0%" stop-color="#7C9AB9"/><stop offset="100%" stop-color="#446E9B"/></linearGradient></defs><g><!--cluster dreams--><g class="cluster" data-entity="dreams" data-source-line="14" data-uid="ent0004" id="cluster_dreams"><path d="M20.8333,16.6667 L81.6569,16.6667 A6.25,6.25 0 0 1 85.8236,20.8333 L93.1152,47.8841 L2229.1667,47.8841 A4.1667,4.1667 0 0 1 2233.3333,52.0508 L2233.3333,2930.0625 A4.1667,4.1667 0 0 1 2229.1667,2934.2292 L20.8333,2934.2292 A4.1667,4.1667 0 0 1 16.6667,2930.0625 L16.6667,20.8333 A4.1667,4.1667 0 0 1 20.8333,16.6667" fill="url(#gcsmwnrfyeqbo0)" style="stroke:#446E9B;stroke-width:2.0833;"/><line style="stroke:#446E9B;stroke-width:2.0833;" x1="16.6667" x2="93.1152" y1="47.8841" y2="47.8841"/><text fill="#446E9B" font-family="'Verdana'" font-size="12.5" font-weight="bold" lengthAdjust="spacing" textLength="52.4902" x="26.0417" y="35.5611">dreams</text></g><!--cluster model--><g class="cluster" data-entity="model" data-source-line="10" data-uid="ent0002" id="cluster_model"><path d="M45.8333,68.75 L97.4894,68.75 A6.25,6.25 0 0 1 101.6561,72.9167 L108.9478,99.9674 L1713.5417,99.9674 A4.1667,4.1667 0 0 1 1717.7083,104.1341 L1717.7083,2905.0625 A4.1667,4.1667 0 0 1 1713.5417,2909.2292 L45.8333,2909.2292 A4.1667,4.1667 0 0 1 41.6667,2905.0625 L41.6667,72.9167 A4.1667,4.1667 0 0 1 45.8333,68.75" fill="#999999" style="stroke:#446E9B;stroke-width:2.0833;"/><line style="stroke:#446E9B;stroke-width:2.0833;" x1="41.6667" x2="108.9478" y1="99.9674" y2="99.9674"/><text fill="#446E9B" font-family="'Verdana'" font-size="12.5" font-weight="bold" lengthAdjust="spacing" textLength="43.3228" x="51.0417" y="87.6444">model</text></g><!--class Cliente--><g class="entity" data-entity="Cliente" data-source-line="14" data-uid="ent0003" id="entity_Cliente"><rect fill="url(#gcsmwnrfyeqbo1)" height="471.3379" rx="4.1667" ry="4.1667" style="stroke:#304D6D;stroke-width:1.0417;" width="459.8943" x="664.8438" y="112.5"/><rect fill="url(#gcsmwnrfyeqbo2)" height="34.1715" rx="4.1667" ry="4.1667" style="stroke:url(#gcsmwnrfyeqbo2);stroke-width:1.0417;" width="459.8943" x="664.8438" y="112.5"/><rect fill="url(#gcsmwnrfyeqbo2)" height="4.1667" style="stroke:url(#gcsmwnrfyeqbo2);stroke-width:1.0417;" width="459.8943" x="664.8438" y="142.5049"/><rect fill="none" height="471.3379" rx="4.1667" ry="4.1667" style="stroke:#304D6D;stroke-width:1.0417;" width="459.8943" x="664.8438" y="112.5"/><ellipse cx="865.3051" cy="129.5858" fill="#B8B8B8" rx="10.4167" ry="10.4167" style="stroke:#6B6B6B;stroke-width:1.0417;"/><path d="M867.2094,134.0129 Q866.7862,134.2244 866.3142,134.3384 Q865.8422,134.4523 865.3376,134.4523 Q863.4822,134.4523 862.5056,133.2479 Q861.5453,132.0272 861.5453,129.7323 Q861.5453,127.4211 862.5056,126.2166 Q863.4822,124.9959 865.3376,124.9959 Q865.8422,124.9959 866.3142,125.1099 Q866.8025,125.2075 867.2094,125.4354 L867.2094,127.4373 Q866.7536,127.0142 866.3142,126.8188 Q865.8747,126.6073 865.419,126.6073 Q864.4262,126.6073 863.9216,127.4048 Q863.4171,128.186 863.4171,129.7323 Q863.4171,131.2622 863.9216,132.0435 Q864.4262,132.8247 865.419,132.8247 Q865.8747,132.8247 866.3142,132.6294 Q866.7536,132.4341 867.2094,132.0109 L867.2094,134.0129 Z " fill="#FFFFFF"/><text fill="#EEEEEE" font-family="'Verdana'" font-size="11.4583" lengthAdjust="spacing" textLength="40.2217" x="890.3051" y="133.5526">Cliente</text><line style="stroke:#304D6D;stroke-width:1.0417;" x1="665.8854" x2="1123.6964" y1="146.6715" y2="146.6715"/><text fill="#EEEEEE" font-family="'Verdana'" font-size="11.4583" lengthAdjust="spacing" textLength="4.1346" x="676.3021" y="166.6824">-</text><text fill="#EEEEEE" font-family="'Verdana'" font-size="11.4583" font-weight="bold" lengthAdjust="spacing" textLength="12.1297" x="680.4367" y="166.6824">id</text><text fill="#EEEEEE" font-family="'Verdana'" font-size="11.4583" lengthAdjust="spacing" textLength="68.5654" x="692.5664" y="166.6824">: UUID &#171;PK&#187;</text><text fill="#EEEEEE" font-family="'Verdana'" font-size="11.4583" lengthAdjust="spacing" textLength="90.3015" x="676.3021" y="190.4373">-nombre: String</text><text fill="#EEEEEE" font-family="'Verdana'" font-size="11.4583" lengthAdjust="spacing" textLength="77.4333" x="676.3021" y="214.1922">-email: String</text><text fill="#EEEEEE" font-family="'Verdana'" font-size="11.4583" lengthAdjust="spacing" textLength="92.2373" x="676.3021" y="237.9471">-activo: boolean</text><line style="stroke:#304D6D;stroke-width:1.0417;" x1="665.8854" x2="1123.6964" y1="250.0244" y2="250.0244"/><text fill="#EEEEEE" font-family="'Verdana'" font-size="11.4583" lengthAdjust="spacing" textLength="279.7333" x="676.3021" y="297.9568">+Cliente(id: UUID, nombre: String, email: String)</text><line style="stroke:#304D6D;stroke-width:1.0417;stroke-dasharray:1.0417,2.0833;" x1="665.8854" x2="852.9864" y1="270.2352" y2="270.2352"/><text fill="#EEEEEE" font-family="'Verdana'" font-size="11.4583" lengthAdjust="spacing" textLength="73.1923" x="858.1947" y="273.6811">Constructors</text><line style="stroke:#304D6D;stroke-width:1.0417;stroke-dasharray:1.0417,2.0833;" x1="936.5954" x2="1123.6964" y1="270.2352" y2="270.2352"/><text fill="#EEEEEE" font-family="'Verdana'" font-size="11.4583" lengthAdjust="spacing" textLength="84.4884" x="676.3021" y="349.6333">+getId(): UUID</text><text fill="#EEEEEE" font-family="'Verdana'" font-size="11.4583" lengthAdjust="spacing" textLength="124.8332" x="676.3021" y="373.3882">+getNombre(): String</text><text fill="#EEEEEE" font-family="'Verdana'" font-size="11.4583" lengthAdjust="spacing" textLength="110.8459" x="676.3021" y="397.143">+getEmail(): String</text><text fill="#EEEEEE" font-family="'Verdana'" font-size="11.4583" lengthAdjust="spacing" textLength="116.6143" x="676.3021" y="420.8979">+isActivo(): boolean</text><line style="stroke:#304D6D;stroke-width:1.0417;stroke-dasharray:1.0417,2.0833;" x1="665.8854" x2="868.2604" y1="321.9116" y2="321.9116"/><text fill="#EEEEEE" font-family="'Verdana'" font-size="11.4583" lengthAdjust="spacing" textLength="42.6442" x="873.4688" y="325.3576">Getters</text><line style="stroke:#304D6D;stroke-width:1.0417;stroke-dasharray:1.0417,2.0833;" x1="921.3214" x2="1123.6964" y1="321.9116" y2="321.9116"/><text fill="#EEEEEE" font-family="'Verdana'" font-size="11.4583" lengthAdjust="spacing" textLength="199.7487" x="676.3021" y="472.5744">+setNombre(nombre: String): void</text><text fill="#EEEEEE" font-family="'Verdana'" font-size="11.4583" lengthAdjust="spacing" textLength="172.8933" x="676.3021" y="496.3292">+setEmail(email: String): void</text><text fill="#EEEEEE" font-family="'Verdana'" font-size="11.4583" lengthAdjust="spacing" textLength="191.5131" x="676.3021" y="520.0841">+setActivo(activo: boolean): void</text><line style="stroke:#304D6D;stroke-width:1.0417;stroke-dasharray:1.0417,2.0833;" x1="665.8854" x2="869.0633" y1="444.8527" y2="444.8527"/><text fill="#EEEEEE" font-family="'Verdana'" font-size="11.4583" lengthAdjust="spacing" textLength="41.0385" x="874.2716" y="448.2986">Setters</text><line style="stroke:#304D6D;stroke-width:1.0417;stroke-dasharray:1.0417,2.0833;" x1="920.5185" x2="1123.6964" y1="444.8527" y2="444.8527"/><text fill="#EEEEEE" font-family="'Verdana'" font-size="11.4583" lengthAdjust="spacing" textLength="436.9776" x="676.3021" y="571.7606">+actualizarInformacion(nombre: String, email: String, activo: boolean): void</text><line style="stroke:#304D6D;stroke-width:1.0417;stroke-dasharray:1.0417,2.0833;" x1="665.8854" x2="858.2904" y1="544.0389" y2="544.0389"/><text fill="#EEEEEE" font-family="'Verdana'" font-size="11.4583" lengthAdjust="spacing" textLength="62.5844" x="863.4987" y="547.4848">Controllers</text><line style="stroke:#304D6D;stroke-width:1.0417;stroke-dasharray:1.0417,2.0833;" x1="931.2915" x2="1123.6964" y1="544.0389" y2="544.0389"/></g><!--class Producto--><g class="entity" data-entity="Producto" data-source-line="35" data-uid="ent0005" id="entity_Producto"><rect fill="url(#gcsmwnrfyeqbo1)" height="637.6221" rx="4.1667" ry="4.1667" style="stroke:#304D6D;stroke-width:1.0417;" width="431.1422" x="679.2188" y="1923.6458"/><rect fill="url(#gcsmwnrfyeqbo2)" height="34.1715" rx="4.1667" ry="4.1667" style="stroke:url(#gcsmwnrfyeqbo2);stroke-width:1.0417;" width="431.1422" x="679.2188" y="1923.6458"/><rect fill="url(#gcsmwnrfyeqbo2)" height="4.1667" style="stroke:url(#gcsmwnrfyeqbo2);stroke-width:1.0417;" width="431.1422" x="679.2188" y="1953.6507"/><rect fill="none" height="637.6221" rx="4.1667" ry="4.1667" style="stroke:#304D6D;stroke-width:1.0417;" width="431.1422" x="679.2188" y="1923.6458"/><ellipse cx="859.9301" cy="1940.7316" fill="#B8B8B8" rx="10.4167" ry="10.4167" style="stroke:#6B6B6B;stroke-width:1.0417;"/><path d="M861.8344,1945.1587 Q861.4112,1945.3703 860.9392,1945.4842 Q860.4672,1945.5981 859.9627,1945.5981 Q858.1072,1945.5981 857.1306,1944.3937 Q856.1703,1943.173 856.1703,1940.8781 Q856.1703,1938.5669 857.1306,1937.3625 Q858.1072,1936.1418 859.9627,1936.1418 Q860.4672,1936.1418 860.9392,1936.2557 Q861.4275,1936.3534 861.8344,1936.5812 L861.8344,1938.5832 Q861.3787,1938.16 860.9392,1937.9647 Q860.4998,1937.7531 860.044,1937.7531 Q859.0512,1937.7531 858.5467,1938.5506 Q858.0421,1939.3319 858.0421,1940.8781 Q858.0421,1942.408 858.5467,1943.1893 Q859.0512,1943.9705 860.044,1943.9705 Q860.4998,1943.9705 860.9392,1943.7752 Q861.3787,1943.5799 861.8344,1943.1567 L861.8344,1945.1587 Z " fill="#FFFFFF"/><text fill="#EEEEEE" font-family="'Verdana'" font-size="11.4583" lengthAdjust="spacing" textLength="50.9694" x="884.9301" y="1944.6984">Producto</text><line style="stroke:#304D6D;stroke-width:1.0417;" x1="680.2604" x2="1109.3193" y1="1957.8174" y2="1957.8174"/><text fill="#EEEEEE" font-family="'Verdana'" font-size="11.4583" lengthAdjust="spacing" textLength="4.1346" x="690.6771" y="1977.8283">-</text><text fill="#EEEEEE" font-family="'Verdana'" font-size="11.4583" font-weight="bold" lengthAdjust="spacing" textLength="12.1297" x="694.8117" y="1977.8283">id</text><text fill="#EEEEEE" font-family="'Verdana'" font-size="11.4583" lengthAdjust="spacing" textLength="54.5278" x="706.9414" y="1977.8283">: int &#171;PK&#187;</text><text fill="#EEEEEE" font-family="'Verdana'" font-size="11.4583" lengthAdjust="spacing" textLength="90.3015" x="690.6771" y="2001.5832">-nombre: String</text><text fill="#EEEEEE" font-family="'Verdana'" font-size="11.4583" lengthAdjust="spacing" textLength="112.2055" x="690.6771" y="2025.338">-precio: BigDecimal</text><text fill="#EEEEEE" font-family="'Verdana'" font-size="11.4583" lengthAdjust="spacing" textLength="172.4345" x="690.6771" y="2049.0929">-categoria: CategoriaProducto</text><text fill="#EEEEEE" font-family="'Verdana'" font-size="11.4583" lengthAdjust="spacing" textLength="56.9839" x="690.6771" y="2072.8478">-stock: int</text><text fill="#EEEEEE" font-family="'Verdana'" font-size="11.4583" lengthAdjust="spacing" textLength="92.2373" x="690.6771" y="2096.6027">-activo: boolean</text><line style="stroke:#304D6D;stroke-width:1.0417;" x1="680.2604" x2="1109.3193" y1="2108.68" y2="2108.68"/><text fill="#EEEEEE" font-family="'Verdana'" font-size="11.4583" lengthAdjust="spacing" textLength="408.2255" x="690.6771" y="2156.6124">+Producto(nombre: String, precio: double, categoria: String, stock: int)</text><line style="stroke:#304D6D;stroke-width:1.0417;stroke-dasharray:1.0417,2.0833;" x1="680.2604" x2="852.9853" y1="2128.8908" y2="2128.8908"/><text fill="#EEEEEE" font-family="'Verdana'" font-size="11.4583" lengthAdjust="spacing" textLength="73.1923" x="858.1937" y="2132.3367">Constructors</text><line style="stroke:#304D6D;stroke-width:1.0417;stroke-dasharray:1.0417,2.0833;" x1="936.5943" x2="1109.3193" y1="2128.8908" y2="2128.8908"/><text fill="#EEEEEE" font-family="'Verdana'" font-size="11.4583" lengthAdjust="spacing" textLength="70.4508" x="690.6771" y="2208.2889">+getId(): int</text><text fill="#EEEEEE" font-family="'Verdana'" font-size="11.4583" lengthAdjust="spacing" textLength="124.8332" x="690.6771" y="2232.0438">+getNombre(): String</text><text fill="#EEEEEE" font-family="'Verdana'" font-size="11.4583" lengthAdjust="spacing" textLength="119.076" x="690.6771" y="2255.7986">+getPrecio(): double</text><text fill="#EEEEEE" font-family="'Verdana'" font-size="11.4583" lengthAdjust="spacing" textLength="207.3578" x="690.6771" y="2279.5535">+getCategoria(): CategoriaProducto</text><text fill="#EEEEEE" font-family="'Verdana'" font-size="11.4583" lengthAdjust="spacing" textLength="91.51" x="690.6771" y="2303.3084">+getStock(): int</text><text fill="#EEEEEE" font-family="'Verdana'" font-size="11.4583" lengthAdjust="spacing" textLength="116.6143" x="690.6771" y="2327.0633">+isActivo(): boolean</text><line style="stroke:#304D6D;stroke-width:1.0417;stroke-dasharray:1.0417,2.0833;" x1="680.2604" x2="868.2594" y1="2180.5672" y2="2180.5672"/><text fill="#EEEEEE" font-family="'Verdana'" font-size="11.4583" lengthAdjust="spacing" textLength="42.6442" x="873.4677" y="2184.0132">Getters</text><line style="stroke:#304D6D;stroke-width:1.0417;stroke-dasharray:1.0417,2.0833;" x1="921.3203" x2="1109.3193" y1="2180.5672" y2="2180.5672"/><text fill="#EEEEEE" font-family="'Verdana'" font-size="11.4583" lengthAdjust="spacing" textLength="199.7487" x="690.6771" y="2378.7397">+setNombre(nombre: String): void</text><text fill="#EEEEEE" font-family="'Verdana'" font-size="11.4583" lengthAdjust="spacing" textLength="185.051" x="690.6771" y="2402.4946">+setPrecio(precio: double): void</text><text fill="#EEEEEE" font-family="'Verdana'" font-size="11.4583" lengthAdjust="spacing" textLength="219.3309" x="690.6771" y="2426.2495">+setCategoria(categoria: String): void</text><text fill="#EEEEEE" font-family="'Verdana'" font-size="11.4583" lengthAdjust="spacing" textLength="152.3656" x="690.6771" y="2450.0044">+setStock(stock: int): void</text><text fill="#EEEEEE" font-family="'Verdana'" font-size="11.4583" lengthAdjust="spacing" textLength="191.5131" x="690.6771" y="2473.7593">+setActivo(activo: boolean): void</text><line style="stroke:#304D6D;stroke-width:1.0417;stroke-dasharray:1.0417,2.0833;" x1="680.2604" x2="869.0622" y1="2351.0181" y2="2351.0181"/><text fill="#EEEEEE" font-family="'Verdana'" font-size="11.4583" lengthAdjust="spacing" textLength="41.0385" x="874.2706" y="2354.464">Setters</text><line style="stroke:#304D6D;stroke-width:1.0417;stroke-dasharray:1.0417,2.0833;" x1="920.5174" x2="1109.3193" y1="2351.0181" y2="2351.0181"/><text fill="#EEEEEE" font-family="'Verdana'" font-size="11.4583" lengthAdjust="spacing" textLength="210.4853" x="690.6771" y="2525.4357">+actualizarStock(cantidad: int): void</text><text fill="#EEEEEE" font-family="'Verdana'" font-size="11.4583" lengthAdjust="spacing" textLength="349.4624" x="690.6771" y="2549.1906">+validarDisponibilidad(cantidadRequerida: Integer): boolean</text><line style="stroke:#304D6D;stroke-width:1.0417;stroke-dasharray:1.0417,2.0833;" x1="680.2604" x2="858.2893" y1="2497.714" y2="2497.714"/><text fill="#EEEEEE" font-family="'Verdana'" font-size="11.4583" lengthAdjust="spacing" textLength="62.5844" x="863.4976" y="2501.16">Controllers</text><line style="stroke:#304D6D;stroke-width:1.0417;stroke-dasharray:1.0417,2.0833;" x1="931.2904" x2="1109.3193" y1="2497.714" y2="2497.714"/></g><!--class Venta--><g class="entity" data-entity="Venta" data-source-line="63" data-uid="ent0006" id="entity_Venta"><rect fill="url(#gcsmwnrfyeqbo1)" height="633.4554" rx="4.1667" ry="4.1667" style="stroke:#304D6D;stroke-width:1.0417;" width="383.8038" x="702.8854" y="646.3333"/><rect fill="url(#gcsmwnrfyeqbo2)" height="34.1715" rx="4.1667" ry="4.1667" style="stroke:url(#gcsmwnrfyeqbo2);stroke-width:1.0417;" width="383.8038" x="702.8854" y="646.3333"/><rect fill="url(#gcsmwnrfyeqbo2)" height="4.1667" style="stroke:url(#gcsmwnrfyeqbo2);stroke-width:1.0417;" width="383.8038" x="702.8854" y="676.3382"/><rect fill="none" height="633.4554" rx="4.1667" ry="4.1667" style="stroke:#304D6D;stroke-width:1.0417;" width="383.8038" x="702.8854" y="646.3333"/><ellipse cx="868.5801" cy="663.4191" fill="#B8B8B8" rx="10.4167" ry="10.4167" style="stroke:#6B6B6B;stroke-width:1.0417;"/><path d="M870.4844,667.8462 Q870.0612,668.0578 869.5892,668.1717 Q869.1172,668.2856 868.6127,668.2856 Q866.7572,668.2856 865.7806,667.0812 Q864.8203,665.8605 864.8203,663.5656 Q864.8203,661.2544 865.7806,660.05 Q866.7572,658.8293 868.6127,658.8293 Q869.1172,658.8293 869.5892,658.9432 Q870.0775,659.0409 870.4844,659.2687 L870.4844,661.2707 Q870.0287,660.8475 869.5892,660.6522 Q869.1498,660.4406 868.694,660.4406 Q867.7012,660.4406 867.1966,661.2381 Q866.6921,662.0194 866.6921,663.5656 Q866.6921,665.0955 867.1966,665.8768 Q867.7012,666.658 868.694,666.658 Q869.1498,666.658 869.5892,666.4627 Q870.0287,666.2674 870.4844,665.8442 L870.4844,667.8462 Z " fill="#FFFFFF"/><text fill="#EEEEEE" font-family="'Verdana'" font-size="11.4583" lengthAdjust="spacing" textLength="33.6644" x="893.5801" y="667.3859">Venta</text><line style="stroke:#304D6D;stroke-width:1.0417;" x1="703.9271" x2="1085.6476" y1="680.5049" y2="680.5049"/><text fill="#EEEEEE" font-family="'Verdana'" font-size="11.4583" lengthAdjust="spacing" textLength="4.1346" x="714.3438" y="700.5158">-</text><text fill="#EEEEEE" font-family="'Verdana'" font-size="11.4583" font-weight="bold" lengthAdjust="spacing" textLength="12.1297" x="718.4784" y="700.5158">id</text><text fill="#EEEEEE" font-family="'Verdana'" font-size="11.4583" lengthAdjust="spacing" textLength="54.5278" x="730.6081" y="700.5158">: int &#171;PK&#187;</text><text fill="#EEEEEE" font-family="'Verdana'" font-size="11.4583" lengthAdjust="spacing" textLength="4.1346" x="714.3438" y="724.2707">-</text><text fill="#EEEEEE" font-family="'Verdana'" font-size="11.4583" font-weight="bold" lengthAdjust="spacing" textLength="57.5714" x="718.4784" y="724.2707">idCliente</text><text fill="#EEEEEE" font-family="'Verdana'" font-size="11.4583" lengthAdjust="spacing" textLength="68.2465" x="776.0498" y="724.2707">: UUID &#171;FK&#187;</text><text fill="#EEEEEE" font-family="'Verdana'" font-size="11.4583" lengthAdjust="spacing" textLength="226.4699" x="714.3438" y="748.0255">-productosVenta: List&lt;ProductoVenta&gt;</text><text fill="#EEEEEE" font-family="'Verdana'" font-size="11.4583" lengthAdjust="spacing" textLength="123.3841" x="714.3438" y="771.7804">-subtotal: BigDecimal</text><text fill="#EEEEEE" font-family="'Verdana'" font-size="11.4583" lengthAdjust="spacing" textLength="136.0509" x="714.3438" y="795.5353">-impuestos: BigDecimal</text><text fill="#EEEEEE" font-family="'Verdana'" font-size="11.4583" lengthAdjust="spacing" textLength="102.8788" x="714.3438" y="819.2902">-total: BigDecimal</text><text fill="#EEEEEE" font-family="'Verdana'" font-size="11.4583" lengthAdjust="spacing" textLength="179.5232" x="714.3438" y="843.0451">-fechaCreacion: LocalDateTime</text><text fill="#EEEEEE" font-family="'Verdana'" font-size="11.4583" lengthAdjust="spacing" textLength="123.1267" x="714.3438" y="866.7999">-estado: EstadoVenta</text><line style="stroke:#304D6D;stroke-width:1.0417;" x1="703.9271" x2="1085.6476" y1="878.8773" y2="878.8773"/><text fill="#EEEEEE" font-family="'Verdana'" font-size="11.4583" lengthAdjust="spacing" textLength="271.4976" x="714.3438" y="926.8097">+Venta(idCliente: UUID, fecha: LocalDateTime)</text><line style="stroke:#304D6D;stroke-width:1.0417;stroke-dasharray:1.0417,2.0833;" x1="703.9271" x2="852.9828" y1="899.0881" y2="899.0881"/><text fill="#EEEEEE" font-family="'Verdana'" font-size="11.4583" lengthAdjust="spacing" textLength="73.1923" x="858.1912" y="902.534">Constructors</text><line style="stroke:#304D6D;stroke-width:1.0417;stroke-dasharray:1.0417,2.0833;" x1="936.5918" x2="1085.6476" y1="899.0881" y2="899.0881"/><text fill="#EEEEEE" font-family="'Verdana'" font-size="11.4583" lengthAdjust="spacing" textLength="70.4508" x="714.3438" y="978.4861">+getId(): int</text><text fill="#EEEEEE" font-family="'Verdana'" font-size="11.4583" lengthAdjust="spacing" textLength="124.7101" x="714.3438" y="1002.241">+getIdCliente(): UUID</text><text fill="#EEEEEE" font-family="'Verdana'" font-size="11.4583" lengthAdjust="spacing" textLength="259.3287" x="714.3438" y="1025.9959">+getProductosVenta(): List&lt;ProductoVenta&gt;</text><text fill="#EEEEEE" font-family="'Verdana'" font-size="11.4583" lengthAdjust="spacing" textLength="157.9102" x="714.3438" y="1049.7508">+getSubtotal(): BigDecimal</text><text fill="#EEEEEE" font-family="'Verdana'" font-size="11.4583" lengthAdjust="spacing" textLength="169.4692" x="714.3438" y="1073.5057">+getImpuestos(): BigDecimal</text><text fill="#EEEEEE" font-family="'Verdana'" font-size="11.4583" lengthAdjust="spacing" textLength="138.6078" x="714.3438" y="1097.2606">+getTotal(): BigDecimal</text><text fill="#EEEEEE" font-family="'Verdana'" font-size="11.4583" lengthAdjust="spacing" textLength="215.3025" x="714.3438" y="1121.0154">+getFechaCreacion(): LocalDateTime</text><text fill="#EEEEEE" font-family="'Verdana'" font-size="11.4583" lengthAdjust="spacing" textLength="156.5394" x="714.3438" y="1144.7703">+getEstado(): EstadoVenta</text><line style="stroke:#304D6D;stroke-width:1.0417;stroke-dasharray:1.0417,2.0833;" x1="703.9271" x2="868.2569" y1="950.7645" y2="950.7645"/><text fill="#EEEEEE" font-family="'Verdana'" font-size="11.4583" lengthAdjust="spacing" textLength="42.6442" x="873.4652" y="954.2104">Getters</text><line style="stroke:#304D6D;stroke-width:1.0417;stroke-dasharray:1.0417,2.0833;" x1="921.3178" x2="1085.6476" y1="950.7645" y2="950.7645"/><text fill="#EEEEEE" font-family="'Verdana'" font-size="11.4583" lengthAdjust="spacing" textLength="360.8871" x="714.3438" y="1196.4468">+agregarProducto(producto: Producto, cantidad: int ): boolean</text><text fill="#EEEEEE" font-family="'Verdana'" font-size="11.4583" lengthAdjust="spacing" textLength="288.8306" x="714.3438" y="1220.2016">+removerProducto(idProductoVenta: int): boolean</text><text fill="#EEEEEE" font-family="'Verdana'" font-size="11.4583" lengthAdjust="spacing" textLength="145.5455" x="714.3438" y="1243.9565">+calcularTotal(): boolean</text><text fill="#EEEEEE" font-family="'Verdana'" font-size="11.4583" lengthAdjust="spacing" textLength="151.1347" x="714.3438" y="1267.7114">+finalizarVenta(): boolean</text><line style="stroke:#304D6D;stroke-width:1.0417;stroke-dasharray:1.0417,2.0833;" x1="703.9271" x2="858.2868" y1="1168.7251" y2="1168.7251"/><text fill="#EEEEEE" font-family="'Verdana'" font-size="11.4583" lengthAdjust="spacing" textLength="62.5844" x="863.4951" y="1172.171">Controllers</text><line style="stroke:#304D6D;stroke-width:1.0417;stroke-dasharray:1.0417,2.0833;" x1="931.2879" x2="1085.6476" y1="1168.7251" y2="1168.7251"/></g><!--class ProductoVenta--><g class="entity" data-entity="ProductoVenta" data-source-line="91" data-uid="ent0007" id="entity_ProductoVenta"><rect fill="url(#gcsmwnrfyeqbo1)" height="518.8477" rx="4.1667" ry="4.1667" style="stroke:#304D6D;stroke-width:1.0417;" width="497.9787" x="645.8021" y="1342.2917"/><rect fill="url(#gcsmwnrfyeqbo2)" height="34.1715" rx="4.1667" ry="4.1667" style="stroke:url(#gcsmwnrfyeqbo2);stroke-width:1.0417;" width="497.9787" x="645.8021" y="1342.2917"/><rect fill="url(#gcsmwnrfyeqbo2)" height="4.1667" style="stroke:url(#gcsmwnrfyeqbo2);stroke-width:1.0417;" width="497.9787" x="645.8021" y="1372.2965"/><rect fill="none" height="518.8477" rx="4.1667" ry="4.1667" style="stroke:#304D6D;stroke-width:1.0417;" width="497.9787" x="645.8021" y="1342.2917"/><ellipse cx="843.0995" cy="1359.3774" fill="#B8B8B8" rx="10.4167" ry="10.4167" style="stroke:#6B6B6B;stroke-width:1.0417;"/><path d="M845.0038,1363.8045 Q844.5806,1364.0161 844.1086,1364.13 Q843.6366,1364.244 843.132,1364.244 Q841.2766,1364.244 840.3,1363.0396 Q839.3397,1361.8188 839.3397,1359.5239 Q839.3397,1357.2127 840.3,1356.0083 Q841.2766,1354.7876 843.132,1354.7876 Q843.6366,1354.7876 844.1086,1354.9015 Q844.5969,1354.9992 845.0038,1355.2271 L845.0038,1357.229 Q844.5481,1356.8058 844.1086,1356.6105 Q843.6692,1356.3989 843.2134,1356.3989 Q842.2206,1356.3989 841.716,1357.1965 Q841.2115,1357.9777 841.2115,1359.5239 Q841.2115,1361.0539 841.716,1361.8351 Q842.2206,1362.6164 843.2134,1362.6164 Q843.6692,1362.6164 844.1086,1362.4211 Q844.5481,1362.2257 845.0038,1361.8026 L845.0038,1363.8045 Z " fill="#FFFFFF"/><text fill="#EEEEEE" font-family="'Verdana'" font-size="11.4583" lengthAdjust="spacing" textLength="84.6339" x="868.0995" y="1363.3442">ProductoVenta</text><line style="stroke:#304D6D;stroke-width:1.0417;" x1="646.8438" x2="1142.7391" y1="1376.4632" y2="1376.4632"/><text fill="#EEEEEE" font-family="'Verdana'" font-size="11.4583" lengthAdjust="spacing" textLength="4.1346" x="657.2604" y="1396.4741">-</text><text fill="#EEEEEE" font-family="'Verdana'" font-size="11.4583" font-weight="bold" lengthAdjust="spacing" textLength="12.1297" x="661.395" y="1396.4741">id</text><text fill="#EEEEEE" font-family="'Verdana'" font-size="11.4583" lengthAdjust="spacing" textLength="54.5278" x="673.5248" y="1396.4741">: int &#171;PK&#187;</text><text fill="#EEEEEE" font-family="'Verdana'" font-size="11.4583" lengthAdjust="spacing" textLength="4.1346" x="657.2604" y="1420.229">-</text><text fill="#EEEEEE" font-family="'Verdana'" font-size="11.4583" font-weight="bold" lengthAdjust="spacing" textLength="70.5516" x="661.395" y="1420.229">idProducto</text><text fill="#EEEEEE" font-family="'Verdana'" font-size="11.4583" lengthAdjust="spacing" textLength="54.2089" x="731.9466" y="1420.229">: int &#171;FK&#187;</text><text fill="#EEEEEE" font-family="'Verdana'" font-size="11.4583" lengthAdjust="spacing" textLength="4.1346" x="657.2604" y="1443.9839">-</text><text fill="#EEEEEE" font-family="'Verdana'" font-size="11.4583" font-weight="bold" lengthAdjust="spacing" textLength="50.1358" x="661.395" y="1443.9839">idVenta</text><text fill="#EEEEEE" font-family="'Verdana'" font-size="11.4583" lengthAdjust="spacing" textLength="54.2089" x="711.5308" y="1443.9839">: int &#171;FK&#187;</text><text fill="#EEEEEE" font-family="'Verdana'" font-size="11.4583" lengthAdjust="spacing" textLength="76.4038" x="657.2604" y="1467.7387">-cantidad: int</text><text fill="#EEEEEE" font-family="'Verdana'" font-size="11.4583" lengthAdjust="spacing" textLength="131.4687" x="657.2604" y="1491.4936">-precioUnitario: double</text><text fill="#EEEEEE" font-family="'Verdana'" font-size="11.4583" lengthAdjust="spacing" textLength="97.3958" x="657.2604" y="1515.2485">-subtotal: double</text><line style="stroke:#304D6D;stroke-width:1.0417;" x1="646.8438" x2="1142.7391" y1="1527.3258" y2="1527.3258"/><text fill="#EEEEEE" font-family="'Verdana'" font-size="11.4583" lengthAdjust="spacing" textLength="475.0621" x="657.2604" y="1575.2583">+ProductoVenta(idProducto: int, idVenta: int, cantidad: int, precioUnitario: double)</text><line style="stroke:#304D6D;stroke-width:1.0417;stroke-dasharray:1.0417,2.0833;" x1="646.8438" x2="852.9869" y1="1547.5366" y2="1547.5366"/><text fill="#EEEEEE" font-family="'Verdana'" font-size="11.4583" lengthAdjust="spacing" textLength="73.1923" x="858.1953" y="1550.9826">Constructors</text><line style="stroke:#304D6D;stroke-width:1.0417;stroke-dasharray:1.0417,2.0833;" x1="936.5959" x2="1142.7391" y1="1547.5366" y2="1547.5366"/><text fill="#EEEEEE" font-family="'Verdana'" font-size="11.4583" lengthAdjust="spacing" textLength="70.4508" x="657.2604" y="1626.9347">+getId(): int</text><text fill="#EEEEEE" font-family="'Verdana'" font-size="11.4583" lengthAdjust="spacing" textLength="153.1881" x="657.2604" y="1650.6896">+getIdProducto(): int &#171;FK&#187;</text><text fill="#EEEEEE" font-family="'Verdana'" font-size="11.4583" lengthAdjust="spacing" textLength="135.8831" x="657.2604" y="1674.4445">+getIdVenta(): int &#171;FK&#187;</text><text fill="#EEEEEE" font-family="'Verdana'" font-size="11.4583" lengthAdjust="spacing" textLength="111.3271" x="657.2604" y="1698.1994">+getCantidad(): int</text><text fill="#EEEEEE" font-family="'Verdana'" font-size="11.4583" lengthAdjust="spacing" textLength="164.3275" x="657.2604" y="1721.9542">+getPrecioUnitario(): double</text><text fill="#EEEEEE" font-family="'Verdana'" font-size="11.4583" lengthAdjust="spacing" textLength="131.9219" x="657.2604" y="1745.7091">+getSubtotal(): double</text><line style="stroke:#304D6D;stroke-width:1.0417;stroke-dasharray:1.0417,2.0833;" x1="646.8438" x2="868.261" y1="1599.2131" y2="1599.2131"/><text fill="#EEEEEE" font-family="'Verdana'" font-size="11.4583" lengthAdjust="spacing" textLength="42.6442" x="873.4693" y="1602.659">Getters</text><line style="stroke:#304D6D;stroke-width:1.0417;stroke-dasharray:1.0417,2.0833;" x1="921.3219" x2="1142.7391" y1="1599.2131" y2="1599.2131"/><text fill="#EEEEEE" font-family="'Verdana'" font-size="11.4583" lengthAdjust="spacing" textLength="191.6026" x="657.2604" y="1797.3856">+setCantidad(cantidad: int): void</text><line style="stroke:#304D6D;stroke-width:1.0417;stroke-dasharray:1.0417,2.0833;" x1="646.8438" x2="869.0639" y1="1769.6639" y2="1769.6639"/><text fill="#EEEEEE" font-family="'Verdana'" font-size="11.4583" lengthAdjust="spacing" textLength="41.0385" x="874.2722" y="1773.1098">Setters</text><line style="stroke:#304D6D;stroke-width:1.0417;stroke-dasharray:1.0417,2.0833;" x1="920.519" x2="1142.7391" y1="1769.6639" y2="1769.6639"/><text fill="#EEEEEE" font-family="'Verdana'" font-size="11.4583" lengthAdjust="spacing" textLength="158.0892" x="657.2604" y="1849.062">+calcularSubtotal(): double</text><line style="stroke:#304D6D;stroke-width:1.0417;stroke-dasharray:1.0417,2.0833;" x1="646.8438" x2="858.2909" y1="1821.3403" y2="1821.3403"/><text fill="#EEEEEE" font-family="'Verdana'" font-size="11.4583" lengthAdjust="spacing" textLength="62.5844" x="863.4992" y="1824.7863">Controllers</text><line style="stroke:#304D6D;stroke-width:1.0417;stroke-dasharray:1.0417,2.0833;" x1="931.292" x2="1142.7391" y1="1821.3403" y2="1821.3403"/></g><!--class ProductoElectronica--><g class="entity" data-entity="ProductoElectronica" data-source-line="114" data-uid="ent0008" id="entity_ProductoElectronica"><rect fill="url(#gcsmwnrfyeqbo1)" height="268.7988" rx="4.1667" ry="4.1667" style="stroke:#304D6D;stroke-width:1.0417;" width="833.3252" x="58.3333" y="2623.7604"/><rect fill="url(#gcsmwnrfyeqbo2)" height="34.1715" rx="4.1667" ry="4.1667" style="stroke:url(#gcsmwnrfyeqbo2);stroke-width:1.0417;" width="833.3252" x="58.3333" y="2623.7604"/><rect fill="url(#gcsmwnrfyeqbo2)" height="4.1667" style="stroke:url(#gcsmwnrfyeqbo2);stroke-width:1.0417;" width="833.3252" x="58.3333" y="2653.7653"/><rect fill="none" height="268.7988" rx="4.1667" ry="4.1667" style="stroke:#304D6D;stroke-width:1.0417;" width="833.3252" x="58.3333" y="2623.7604"/><ellipse cx="408.2593" cy="2640.8462" fill="#B8B8B8" rx="10.4167" ry="10.4167" style="stroke:#6B6B6B;stroke-width:1.0417;"/><path d="M410.1636,2645.2733 Q409.7404,2645.4849 409.2684,2645.5988 Q408.7964,2645.7127 408.2919,2645.7127 Q406.4364,2645.7127 405.4598,2644.5083 Q404.4996,2643.2876 404.4996,2640.9927 Q404.4996,2638.6815 405.4598,2637.4771 Q406.4364,2636.2563 408.2919,2636.2563 Q408.7964,2636.2563 409.2684,2636.3703 Q409.7567,2636.4679 410.1636,2636.6958 L410.1636,2638.6978 Q409.7079,2638.2746 409.2684,2638.0793 Q408.829,2637.8677 408.3733,2637.8677 Q407.3804,2637.8677 406.8759,2638.6652 Q406.3713,2639.4465 406.3713,2640.9927 Q406.3713,2642.5226 406.8759,2643.3039 Q407.3804,2644.0851 408.3733,2644.0851 Q408.829,2644.0851 409.2684,2643.8898 Q409.7079,2643.6945 410.1636,2643.2713 L410.1636,2645.2733 Z " fill="#FFFFFF"/><text fill="#EEEEEE" font-family="'Verdana'" font-size="11.4583" lengthAdjust="spacing" textLength="114.7232" x="433.2593" y="2644.813">ProductoElectronica</text><line style="stroke:#304D6D;stroke-width:1.0417;" x1="59.375" x2="890.6169" y1="2657.932" y2="2657.932"/><text fill="#EEEEEE" font-family="'Verdana'" font-size="11.4583" lengthAdjust="spacing" textLength="8.2692" x="69.7917" y="2677.9429">--</text><text fill="#EEEEEE" font-family="'Verdana'" font-size="11.4583" lengthAdjust="spacing" textLength="810.4085" x="69.7917" y="2729.6193">+ProductoElectronica(id: int, nombre: String, precio: BigDecimal, categoria: String, stock: int, activo: boolean, marca: String, modelo: String)</text><line style="stroke:#304D6D;stroke-width:1.0417;stroke-dasharray:1.0417,2.0833;" x1="59.375" x2="429.6666" y1="2701.8976" y2="2701.8976"/><text fill="#EEEEEE" font-family="'Verdana'" font-size="11.4583" lengthAdjust="spacing" textLength="80.2419" x="434.875" y="2705.3436">Constructores</text><line style="stroke:#304D6D;stroke-width:1.0417;stroke-dasharray:1.0417,2.0833;" x1="520.3252" x2="890.6169" y1="2701.8976" y2="2701.8976"/><text fill="#EEEEEE" font-family="'Verdana'" font-size="11.4583" lengthAdjust="spacing" textLength="113.9959" x="69.7917" y="2781.2957">+getMarca(): String</text><text fill="#EEEEEE" font-family="'Verdana'" font-size="11.4583" lengthAdjust="spacing" textLength="120.4692" x="69.7917" y="2805.0506">+getModelo(): String</text><line style="stroke:#304D6D;stroke-width:1.0417;stroke-dasharray:1.0417,2.0833;" x1="59.375" x2="448.4655" y1="2753.5741" y2="2753.5741"/><text fill="#EEEEEE" font-family="'Verdana'" font-size="11.4583" lengthAdjust="spacing" textLength="42.6442" x="453.6738" y="2757.02">Getters</text><line style="stroke:#304D6D;stroke-width:1.0417;stroke-dasharray:1.0417,2.0833;" x1="501.5264" x2="890.6169" y1="2753.5741" y2="2753.5741"/><text fill="#EEEEEE" font-family="'Verdana'" font-size="11.4583" lengthAdjust="spacing" textLength="180.659" x="69.7917" y="2856.727">+setMarca(marca: String): void</text><text fill="#EEEEEE" font-family="'Verdana'" font-size="11.4583" lengthAdjust="spacing" textLength="193.6056" x="69.7917" y="2880.4819">+setModelo(modelo: String): void</text><line style="stroke:#304D6D;stroke-width:1.0417;stroke-dasharray:1.0417,2.0833;" x1="59.375" x2="449.2683" y1="2829.0054" y2="2829.0054"/><text fill="#EEEEEE" font-family="'Verdana'" font-size="11.4583" lengthAdjust="spacing" textLength="41.0385" x="454.4767" y="2832.4513">Setters</text><line style="stroke:#304D6D;stroke-width:1.0417;stroke-dasharray:1.0417,2.0833;" x1="500.7235" x2="890.6169" y1="2829.0054" y2="2829.0054"/></g><!--class ProductoRopa--><g class="entity" data-entity="ProductoRopa" data-source-line="126" data-uid="ent0010" id="entity_ProductoRopa"><rect fill="url(#gcsmwnrfyeqbo1)" height="268.7988" rx="4.1667" ry="4.1667" style="stroke:#304D6D;stroke-width:1.0417;" width="773.0515" x="928.0625" y="2623.7604"/><rect fill="url(#gcsmwnrfyeqbo2)" height="34.1715" rx="4.1667" ry="4.1667" style="stroke:url(#gcsmwnrfyeqbo2);stroke-width:1.0417;" width="773.0515" x="928.0625" y="2623.7604"/><rect fill="url(#gcsmwnrfyeqbo2)" height="4.1667" style="stroke:url(#gcsmwnrfyeqbo2);stroke-width:1.0417;" width="773.0515" x="928.0625" y="2653.7653"/><rect fill="none" height="268.7988" rx="4.1667" ry="4.1667" style="stroke:#304D6D;stroke-width:1.0417;" width="773.0515" x="928.0625" y="2623.7604"/><ellipse cx="1265.0951" cy="2640.8462" fill="#B8B8B8" rx="10.4167" ry="10.4167" style="stroke:#6B6B6B;stroke-width:1.0417;"/><path d="M1266.9994,2645.2733 Q1266.5762,2645.4849 1266.1042,2645.5988 Q1265.6322,2645.7127 1265.1276,2645.7127 Q1263.2722,2645.7127 1262.2956,2644.5083 Q1261.3353,2643.2876 1261.3353,2640.9927 Q1261.3353,2638.6815 1262.2956,2637.4771 Q1263.2722,2636.2563 1265.1276,2636.2563 Q1265.6322,2636.2563 1266.1042,2636.3703 Q1266.5925,2636.4679 1266.9994,2636.6958 L1266.9994,2638.6978 Q1266.5436,2638.2746 1266.1042,2638.0793 Q1265.6647,2637.8677 1265.209,2637.8677 Q1264.2162,2637.8677 1263.7116,2638.6652 Q1263.2071,2639.4465 1263.2071,2640.9927 Q1263.2071,2642.5226 1263.7116,2643.3039 Q1264.2162,2644.0851 1265.209,2644.0851 Q1265.6647,2644.0851 1266.1042,2643.8898 Q1266.5436,2643.6945 1266.9994,2643.2713 L1266.9994,2645.2733 Z " fill="#FFFFFF"/><text fill="#EEEEEE" font-family="'Verdana'" font-size="11.4583" lengthAdjust="spacing" textLength="80.2363" x="1290.0951" y="2644.813">ProductoRopa</text><line style="stroke:#304D6D;stroke-width:1.0417;" x1="929.1042" x2="1700.0723" y1="2657.932" y2="2657.932"/><text fill="#EEEEEE" font-family="'Verdana'" font-size="11.4583" lengthAdjust="spacing" textLength="8.2692" x="939.5208" y="2677.9429">--</text><text fill="#EEEEEE" font-family="'Verdana'" font-size="11.4583" lengthAdjust="spacing" textLength="750.1348" x="939.5208" y="2729.6193">+ProductoRopa(id: int, nombre: String, precio: BigDecimal, categoria: String, stock: int, activo: boolean, talla: String, color: String)</text><line style="stroke:#304D6D;stroke-width:1.0417;stroke-dasharray:1.0417,2.0833;" x1="929.1042" x2="1269.2589" y1="2701.8976" y2="2701.8976"/><text fill="#EEEEEE" font-family="'Verdana'" font-size="11.4583" lengthAdjust="spacing" textLength="80.2419" x="1274.4673" y="2705.3436">Constructores</text><line style="stroke:#304D6D;stroke-width:1.0417;stroke-dasharray:1.0417,2.0833;" x1="1359.9175" x2="1700.0723" y1="2701.8976" y2="2701.8976"/><text fill="#EEEEEE" font-family="'Verdana'" font-size="11.4583" lengthAdjust="spacing" textLength="106.4651" x="939.5208" y="2781.2957">+getTalla(): String</text><text fill="#EEEEEE" font-family="'Verdana'" font-size="11.4583" lengthAdjust="spacing" textLength="108.9717" x="939.5208" y="2805.0506">+getColor(): String</text><line style="stroke:#304D6D;stroke-width:1.0417;stroke-dasharray:1.0417,2.0833;" x1="929.1042" x2="1288.0578" y1="2753.5741" y2="2753.5741"/><text fill="#EEEEEE" font-family="'Verdana'" font-size="11.4583" lengthAdjust="spacing" textLength="42.6442" x="1293.2661" y="2757.02">Getters</text><line style="stroke:#304D6D;stroke-width:1.0417;stroke-dasharray:1.0417,2.0833;" x1="1341.1187" x2="1700.0723" y1="2753.5741" y2="2753.5741"/><text fill="#EEEEEE" font-family="'Verdana'" font-size="11.4583" lengthAdjust="spacing" textLength="161.8154" x="939.5208" y="2856.727">+setTalla(talla: String): void</text><text fill="#EEEEEE" font-family="'Verdana'" font-size="11.4583" lengthAdjust="spacing" textLength="167.6341" x="939.5208" y="2880.4819">+setColor(color: String): void</text><line style="stroke:#304D6D;stroke-width:1.0417;stroke-dasharray:1.0417,2.0833;" x1="929.1042" x2="1288.8606" y1="2829.0054" y2="2829.0054"/><text fill="#EEEEEE" font-family="'Verdana'" font-size="11.4583" lengthAdjust="spacing" textLength="41.0385" x="1294.069" y="2832.4513">Setters</text><line style="stroke:#304D6D;stroke-width:1.0417;stroke-dasharray:1.0417,2.0833;" x1="1340.3158" x2="1700.0723" y1="2829.0054" y2="2829.0054"/></g><!--class EstadoVenta--><g class="entity" data-entity="EstadoVenta" data-source-line="140" data-uid="ent0012" id="entity_EstadoVenta"><rect fill="url(#gcsmwnrfyeqbo1)" height="98.348" rx="4.1667" ry="4.1667" style="stroke:#304D6D;stroke-width:1.0417;" width="114.3387" x="552.2083" y="913.8958"/><rect fill="url(#gcsmwnrfyeqbo2)" height="34.1715" rx="4.1667" ry="4.1667" style="stroke:url(#gcsmwnrfyeqbo2);stroke-width:1.0417;" width="114.3387" x="552.2083" y="913.8958"/><rect fill="url(#gcsmwnrfyeqbo2)" height="4.1667" style="stroke:url(#gcsmwnrfyeqbo2);stroke-width:1.0417;" width="114.3387" x="552.2083" y="943.9007"/><rect fill="none" height="98.348" rx="4.1667" ry="4.1667" style="stroke:#304D6D;stroke-width:1.0417;" width="114.3387" x="552.2083" y="913.8958"/><ellipse cx="566.7917" cy="930.9816" fill="#E19E4D" rx="10.4167" ry="10.4167" style="stroke:#945200;stroke-width:1.0417;"/><path d="M569.3307,935.6691 L563.6504,935.6691 L563.6504,926.5545 L569.3307,926.5545 L569.3307,928.1496 L565.457,928.1496 L565.457,930.1027 L568.9564,930.1027 L568.9564,931.6978 L565.457,931.6978 L565.457,934.0741 L569.3307,934.0741 L569.3307,935.6691 Z " fill="#FFFFFF"/><text fill="#EEEEEE" font-family="'Verdana'" font-size="11.4583" lengthAdjust="spacing" textLength="72.672" x="585.5417" y="934.9484">EstadoVenta</text><line style="stroke:#304D6D;stroke-width:1.0417;" x1="553.25" x2="665.5054" y1="948.0674" y2="948.0674"/><text fill="#EEEEEE" font-family="'Verdana'" font-size="11.4583" lengthAdjust="spacing" textLength="80.6559" x="563.6667" y="968.0783">PROCESANDO</text><text fill="#EEEEEE" font-family="'Verdana'" font-size="11.4583" lengthAdjust="spacing" textLength="78.9383" x="563.6667" y="991.8332">COMPLETADA</text><line style="stroke:#304D6D;stroke-width:1.0417;" x1="553.25" x2="665.5054" y1="1003.9105" y2="1003.9105"/></g><!--class Dreams--><!--class MenuClientes--><!--class MenuProductos--><!--class MenuVentas--><!--reverse link Producto to ProductoElectronica--><g class="link" data-entity-1="Producto" data-entity-2="ProductoElectronica" data-source-line="115" data-uid="lnk9" id="link_Producto_ProductoElectronica"><path d="M785.4375,2580.4688 C785.4375,2601.8021 785.4375,2603.7813 785.4375,2623.2917" fill="none" id="Producto-backto-ProductoElectronica" style="stroke:#446E9B;stroke-width:3.125;"/><polygon fill="none" points="785.4375,2561.7188,779.1875,2580.4688,791.6875,2580.4688,785.4375,2561.7188" style="stroke:#446E9B;stroke-width:3.125;"/></g><!--reverse link Producto to ProductoRopa--><g class="link" data-entity-1="Producto" data-entity-2="ProductoRopa" data-source-line="127" data-uid="lnk11" id="link_Producto_ProductoRopa"><path d="M1019.2083,2580.4688 C1019.2083,2601.8021 1019.2083,2603.7813 1019.2083,2623.2917" fill="none" id="Producto-backto-ProductoRopa" style="stroke:#446E9B;stroke-width:3.125;"/><polygon fill="none" points="1019.2083,2561.7188,1012.9583,2580.4688,1025.4583,2580.4688,1019.2083,2561.7188" style="stroke:#446E9B;stroke-width:3.125;"/></g><!--link Cliente to Venta--><g class="link" data-entity-1="Cliente" data-entity-2="Venta" data-source-line="193" data-uid="lnk18" id="link_Cliente_Venta"><path codeLine="193" d="M894.7917,584.1458 C894.7917,604.4688 894.7917,625.2292 894.7917,646.0521" fill="none" id="Cliente-Venta" style="stroke:#446E9B;stroke-width:3.125;"/><text fill="#FFFFFF" font-family="'Verdana'" font-size="12.5" lengthAdjust="spacing" textLength="41.6565" x="901.0417" y="606.9049">realiza</text><text fill="#FFFFFF" font-family="'Verdana'" font-size="12.5" lengthAdjust="spacing" textLength="7.9529" x="882.012" y="609.1096">1</text><text fill="#FFFFFF" font-family="'Verdana'" font-size="12.5" lengthAdjust="spacing" textLength="22.1497" x="867.2832" y="630.1795">0..*</text></g><!--link ProductoVenta to Producto--><g class="link" data-entity-1="ProductoVenta" data-entity-2="Producto" data-source-line="196" data-uid="lnk19" id="link_ProductoVenta_Producto"><path codeLine="196" d="M894.7917,1861.4063 C894.7917,1881.7813 894.7917,1902.5104 894.7917,1923.2188" fill="none" id="ProductoVenta-Producto" style="stroke:#446E9B;stroke-width:3.125;"/><text fill="#FFFFFF" font-family="'Verdana'" font-size="12.5" lengthAdjust="spacing" textLength="63.678" x="901.0417" y="1884.1236">referencia</text><text fill="#FFFFFF" font-family="'Verdana'" font-size="12.5" lengthAdjust="spacing" textLength="7.9529" x="882.0386" y="1886.2975">1</text><text fill="#FFFFFF" font-family="'Verdana'" font-size="12.5" lengthAdjust="spacing" textLength="7.9529" x="882.0653" y="1907.287">1</text></g><!--reverse link Venta to ProductoVenta--><g class="link" data-entity-1="Venta" data-entity-2="ProductoVenta" data-source-line="201" data-uid="lnk20" id="link_Venta_ProductoVenta"><path codeLine="201" d="M894.7917,1292.5521 C894.7917,1313.2396 894.7917,1321.4271 894.7917,1341.7917" fill="none" id="Venta-backto-ProductoVenta" style="stroke:#446E9B;stroke-width:3.125;"/><polygon fill="#446E9B" points="894.7917,1280.0521,890.625,1286.3021,894.7917,1292.5521,898.9583,1286.3021,894.7917,1280.0521" style="stroke:#446E9B;stroke-width:3.125;"/><text fill="#FFFFFF" font-family="'Verdana'" font-size="12.5" lengthAdjust="spacing" textLength="54.1199" x="901.0417" y="1302.7278">contiene</text><text fill="#FFFFFF" font-family="'Verdana'" font-size="12.5" lengthAdjust="spacing" textLength="7.9529" x="882.092" y="1304.5853">1</text><text fill="#FFFFFF" font-family="'Verdana'" font-size="12.5" lengthAdjust="spacing" textLength="22.1497" x="867.1831" y="1325.7392">1..*</text></g><!--link EstadoVenta to Venta--><g class="link" data-entity-1="EstadoVenta" data-entity-2="Venta" data-source-line="211" data-uid="lnk22" id="link_EstadoVenta_Venta"><path codeLine="211" d="M666.7917,963.3958 C677.7813,963.3958 689.8333,963.3958 702.4792,963.3958" fill="none" id="EstadoVenta-Venta" style="stroke:#446E9B;stroke-width:3.125;"/><text fill="#FFFFFF" font-family="'Verdana'" font-size="12.5" lengthAdjust="spacing" textLength="26.7639" x="671.6146" y="981.2486">est&#225;</text><text fill="#FFFFFF" font-family="'Verdana'" font-size="12.5" lengthAdjust="spacing" textLength="7.9529" x="680.1167" y="954.8899">1</text><text fill="#FFFFFF" font-family="'Verdana'" font-size="12.5" lengthAdjust="spacing" textLength="7.9529" x="681.5066" y="955.7787">1</text></g><!--SRC=[lLdDSjis4BxdAL3dODcHFUcjrJYPkfBJUced6l_a3f6GZ358g03eDadzC7c6tdhrYtK142H04YIh9j754l5XzziVx2xe_LUlNg4vpzTqKmYiACyHF7c6uFETkYCPGNAB4yBmwfbvAEzfliK2PoXXMCfJfGHT5OgS9po_fXy9Ujc0hN1oln6yoDCvPrmW9N0E8WN9LGF9Q4xKXor1NAWxRjNjQtfB_7j15966cNaCbExnXg1K49p9uuodXA7dFveF-cGW-bDzCM8kDOfxKlJ7M87cZ08VuctLdoDqU4ZJmyCPkhqzNw2Ja-Llhryt43dFLeBCq3Nu8Tyq5ac6AOkiuKJH1pv3AyuPmNcuUXJyF3xM4P9A58dYGiBlOFc5ep-XgQKwRT2QXamEcj9_8KgHBi4ReixJoO6LsbvxQxJezGuJ3U9Cwuq2g3mrNj20BZy0jUiODLcf3sq5KG-SfcsqfH8w8eOjQJLYr0MtiL62CzP94qGKcD6FM9pdQouodC0Hc_I6Pue6z3ws4zocyLBmLET8D8zfhdP8uwqWm7g6VgQR1NpBC6i04gp8XWkAPsZklZek3QXKFBatHBxYUN2wMtvsbgIyM34ozOaxI4rmXsFID6laALaQMXfXYRKHbLirgD_71d-jhUXcz4qFNMbPwFSekhQo5PZe7ckf5xLlUQQjyWJdYgOuxT7_0FWKYmMLMvxJ5TM_qchZ5O469-3R39r37TyGqH6RwAb_3xKV__SZhm5bu_1Qt9isS5jccJIAPkY2IdNYKiyyQ-wGnKfnXLbFoQ3PjY0GDTc36PAn9iaTdiC8e6igyE89PWj8d1kQaMOdbWgd4FKpyzUG_byLnaYOL0vqRTSmQZ3vKcNat2cBz-Db42cD6ugLBHPbkFI6YBCj0nUp8U3D66bl_EWPhj7usL72X4u3Oq4SFBSRGJPOLDt19VQiQXYw8tXd6KLAv0iaICOVI2sAfe6JNINetWnc9WN3ed9JDsnDSrjbgcYEBWa1cTrAWnDH0zzq0usENbJWqyxPuZQd2ekwGqJhITVoZiE1EyBBAWk0tHIL1fM_0khJ2DilTyAhV3g8khD4LZdH1vkNxACQbu4zVGE8NoCwC0D3GqLai5KEdM5tTdhuF3wBd8OpHXAGdDC48_Ad8daQ7vcFK4zMaPwqyfIO-vZ9czWSMjV7WLcqTIUOeWoBnCEQEp3VwOftgINrpQVsvXn138JU2W_8HaUqKa_3bDRj9nBUAxxzYd7LqhzkG26RcOTDzEkIdU9vemNrnTEyYTajd5PsG3K-pXireHt3LrdphkOiBp8Yp6XGllTfuGX0_56W4UdbrRlvsVNfsyMxuF7ytUNoukpcT74Qu_3O-OhfWP8_qFCVp0SqXMpVmvI5EryiBSpkLX8sV9Lno40iBi6a9NWfeLjRsFhpNiFBaN1GmoSWg6ZowAjoUoVT0Qos9623y6RFFYmZP2oqlaMDt40OpM0a6ar51qL4ZUnqPpL0x-BFQlCeX_gjViYZOx6rIyVkS3uTpSOuDMvfT2BL3ZB7T2VNsfsZ_5eDHaDE7GMiFJeAxjmvZeJnPSIqLb6glkxhEeEk2FEhOxbo1FtjLFA4kZK9zsm6Vs71OMxpwdKtNETI0dSPQo5AYE28ewo0YrdvMa52VyGfBjynWA0I38-sN42t1GVXp0WhAhcsRJWbUz_lwRQxz_Bu-72l53HpSXmfeoIyjKZDR4s980Wt5JdaiRQcQlNM77tL1sOvofx-OOeQymF9bbwep964FvKuJN8Dwg4UOz_1SvvjkQIbXmFFEaS1zqIZSkWVch1nwzFd9X5qWT43ZCCQ5F99oHR66BEREQ6JIl7Jt_c1jQ9cVsZe6n-7ecP01OPkaXFVY5zBmpp-bU4dVm6WOvxjW-dno9SVDl1E9nbEpSXw3Tq4rs_mDhwI28HDZgSSCgCpQHk-EM9ahMnqVNapdIjFd_sZfQalhE-rTmnpD753fPbYTK3kIkyTV67FGJxeSgcpeI2hHXf8nA4UIekGIF_Jh3wxie3bRULnc4YrNo3nh9SBy3ek2mDa3qef3Amcpr2ATR-3787gnVI1dt2uOUb2hKyumnzuKRuAttT7-WI6n63w0B3djM1fXWhPih_SNxVRje1wpPDWu-Qsb_salRTSi1kzedbXZF4AvXrDWmdFF3KFVofoHlDxaluB]--></g></svg>