<?xml version="1.0" encoding="utf-8"?>
<!DOCTYPE svg PUBLIC "-//W3C//DTD SVG 1.1//EN" "http://www.w3.org/Graphics/SVG/1.1/DTD/svg11.dtd">
<svg version="1.1" xmlns="http://www.w3.org/2000/svg" xmlns:xlink="http://www.w3.org/1999/xlink" xmlns:xml="http://www.w3.org/XML/1998/namespace" width="732px" height="1992px" viewBox="0, 0, 732, 1992" preserveAspectRatio="none" contentStyleType="text/css" zoomAndPan="magnify" style="background-attachment:initial;background-clip:initial;background-color:#FFFFFF;background-image:initial;background-origin:initial;background-position:initial;background-repeat:initial;background-size:initial;">
  <defs />
  <g>
    <g id="cluster_dreams">
      <path d="M76.82 6 L127.6266 6 A3.75 3.75 0 0 1 130.1266 8.5 L137.1266 29.6094 L722.82 29.6094 A2.5 2.5 0 0 1 725.32 32.1094 L725.32 1982.5 A2.5 2.5 0 0 1 722.82 1985 L76.82 1985 A2.5 2.5 0 0 1 74.32 1982.5 L74.32 8.5 A2.5 2.5 0 0 1 76.82 6" stroke-width="1.5" style="fill:none;stroke:black;" />
      <line x1="74.32" y1="29.6094" x2="137.1266" y2="29.6094" stroke-width="1.5" style="stroke:black;" />
      <text x="78.32" y="22.5332" textLength="49.8066" lengthAdjust="spacing" font-family="sans-serif" font-size="14" font-weight="bold" style="fill:black;">dreams</text>
    </g>
    <g id="cluster_src">
      <path d="M113.82 534 L135.8405 534 A3.75 3.75 0 0 1 138.3405 536.5 L145.3405 557.6094 L698.82 557.6094 A2.5 2.5 0 0 1 701.32 560.1094 L701.32 1958.5 A2.5 2.5 0 0 1 698.82 1961 L113.82 1961 A2.5 2.5 0 0 1 111.32 1958.5 L111.32 536.5 A2.5 2.5 0 0 1 113.82 534" stroke-width="1.5" style="fill:#DDDDDD;stroke:black;" />
      <line x1="111.32" y1="557.6094" x2="145.3405" y2="557.6094" stroke-width="1.5" style="stroke:black;" />
      <text x="115.32" y="550.5332" textLength="21.0205" lengthAdjust="spacing" font-family="sans-serif" font-size="14" font-weight="bold" style="fill:black;">src</text>
    </g>
    <g id="cluster_test">
      <path d="M282.82 50 L308.7165 50 A3.75 3.75 0 0 1 311.2165 52.5 L318.2165 73.6094 L567.82 73.6094 A2.5 2.5 0 0 1 570.32 76.1094 L570.32 507.5 A2.5 2.5 0 0 1 567.82 510 L282.82 510 A2.5 2.5 0 0 1 280.32 507.5 L280.32 52.5 A2.5 2.5 0 0 1 282.82 50" stroke-width="1.5" style="fill:#AAAAAA;stroke:black;" />
      <line x1="280.32" y1="73.6094" x2="318.2165" y2="73.6094" stroke-width="1.5" style="stroke:black;" />
      <text x="284.32" y="66.5332" textLength="24.8965" lengthAdjust="spacing" font-family="sans-serif" font-size="14" font-weight="bold" style="fill:black;">test</text>
    </g>
    <g id="elem_Cliente">
      <rect x="127.82" y="570" width="373.4297" height="224.0938" rx="2.5" ry="2.5" id="Cliente" stroke-width="0.5" codeLine="6" style="fill:#F1F1F1;stroke:#181818;" />
      <ellipse cx="288.4953" cy="586" rx="11" ry="11" stroke-width="1" style="fill:#ADD1B2;stroke:#181818;" />
      <path d="M291.2609 581.875 Q291.4172 581.6563 291.6047 581.5469 Q291.7922 581.4375 292.0109 581.4375 Q292.3859 581.4375 292.6203 581.7031 Q292.8547 581.9531 292.8547 582.5625 L292.8547 584.0156 Q292.8547 584.625 292.6203 584.8906 Q292.3859 585.1563 292.0109 585.1563 Q291.6672 585.1563 291.464 584.9531 Q291.2609 584.7656 291.1515 584.25 Q291.1047 583.8906 290.9172 583.7031 Q290.589 583.3281 289.9797 583.1094 Q289.3703 582.8906 288.7453 582.8906 Q287.9797 582.8906 287.339 583.2188 Q286.714 583.5469 286.214 584.2969 Q285.7297 585.0469 285.7297 586.0781 L285.7297 587.1719 Q285.7297 588.4063 286.6203 589.2344 Q287.5109 590.0469 289.1047 590.0469 Q290.0422 590.0469 290.6984 589.7969 Q291.089 589.6406 291.5109 589.2031 Q291.7765 588.9375 291.9172 588.8594 Q292.0734 588.7813 292.2765 588.7813 Q292.6047 588.7813 292.8547 589.0469 Q293.1203 589.2969 293.1203 589.6406 Q293.1203 589.9844 292.7765 590.3906 Q292.2765 590.9688 291.4797 591.2969 Q290.4015 591.75 289.1047 591.75 Q287.589 591.75 286.3859 591.125 Q285.4015 590.625 284.714 589.5625 Q284.0265 588.4844 284.0265 587.2031 L284.0265 586.0469 Q284.0265 584.7188 284.6359 583.5781 Q285.2609 582.4219 286.3547 581.8125 Q287.4484 581.1875 288.6828 581.1875 Q289.4172 581.1875 290.0578 581.3594 Q290.714 581.5156 291.2609 581.875 Z" style="fill:black;" />
      <text x="308.9953" y="591.7285" textLength="43.5791" lengthAdjust="spacing" font-family="sans-serif" font-size="14" style="fill:black;">Cliente</text>
      <line x1="128.82" y1="602" x2="500.2497" y2="602" stroke-width="0.5" style="stroke:#181818;" />
      <text x="133.82" y="620.5332" textLength="4.6621" lengthAdjust="spacing" font-family="sans-serif" font-size="14" style="fill:black;">-</text>
      <text x="138.4821" y="620.5332" textLength="12.4414" lengthAdjust="spacing" font-family="sans-serif" font-size="14" font-weight="bold" style="fill:black;">id</text>
      <text x="150.9235" y="620.5332" textLength="82.4893" lengthAdjust="spacing" font-family="sans-serif" font-size="14" style="fill:black;">: String «PK»</text>
      <text x="133.82" y="638.1426" textLength="96.4824" lengthAdjust="spacing" font-family="sans-serif" font-size="14" style="fill:black;">-nombre: String</text>
      <text x="133.82" y="655.752" textLength="82.4688" lengthAdjust="spacing" font-family="sans-serif" font-size="14" style="fill:black;">-email: String</text>
      <line x1="128.82" y1="662.8281" x2="500.2497" y2="662.8281" stroke-width="0.5" style="stroke:#181818;" />
      <text x="133.82" y="681.3613" textLength="301.5127" lengthAdjust="spacing" font-family="sans-serif" font-size="14" style="fill:black;">+Cliente(id: String, nombre: String, email: String)</text>
      <text x="133.82" y="698.9707" textLength="211.251" lengthAdjust="spacing" font-family="sans-serif" font-size="14" style="fill:black;">+setNombre(nombre: String): void</text>
      <text x="133.82" y="716.5801" textLength="182.4512" lengthAdjust="spacing" font-family="sans-serif" font-size="14" style="fill:black;">+setEmail(email: String): void</text>
      <text x="133.82" y="734.1895" textLength="92.9893" lengthAdjust="spacing" font-family="sans-serif" font-size="14" style="fill:black;">+getId(): String</text>
      <text x="133.82" y="751.7988" textLength="131.1064" lengthAdjust="spacing" font-family="sans-serif" font-size="14" style="fill:black;">+getNombre(): String</text>
      <text x="133.82" y="769.4082" textLength="116.3203" lengthAdjust="spacing" font-family="sans-serif" font-size="14" style="fill:black;">+getEmail(): String</text>
      <text x="133.82" y="787.0176" textLength="361.4297" lengthAdjust="spacing" font-family="sans-serif" font-size="14" style="fill:black;">+actualizarInformacion(nombre: String, email: String): void</text>
    </g>
    <g id="elem_Producto">
      <rect x="144.82" y="1633" width="487.0703" height="312.1406" rx="2.5" ry="2.5" id="Producto" stroke-width="0.5" codeLine="24" style="fill:#F1F1F1;stroke:#181818;" />
      <ellipse cx="356.0881" cy="1649" rx="11" ry="11" stroke-width="1" style="fill:#ADD1B2;stroke:#181818;" />
      <path d="M358.8537 1644.875 Q359.0099 1644.656 359.1974 1644.547 Q359.3849 1644.438 359.6037 1644.438 Q359.9787 1644.438 360.2131 1644.703 Q360.4474 1644.953 360.4474 1645.563 L360.4474 1647.016 Q360.4474 1647.625 360.2131 1647.891 Q359.9787 1648.156 359.6037 1648.156 Q359.2599 1648.156 359.0568 1647.953 Q358.8537 1647.766 358.7443 1647.25 Q358.6974 1646.891 358.5099 1646.703 Q358.1818 1646.328 357.5724 1646.109 Q356.9631 1645.891 356.3381 1645.891 Q355.5724 1645.891 354.9318 1646.219 Q354.3068 1646.547 353.8068 1647.297 Q353.3224 1648.047 353.3224 1649.078 L353.3224 1650.172 Q353.3224 1651.406 354.2131 1652.234 Q355.1037 1653.047 356.6974 1653.047 Q357.6349 1653.047 358.2912 1652.797 Q358.6818 1652.641 359.1037 1652.203 Q359.3693 1651.938 359.5099 1651.859 Q359.6662 1651.781 359.8693 1651.781 Q360.1974 1651.781 360.4474 1652.047 Q360.7131 1652.297 360.7131 1652.641 Q360.7131 1652.984 360.3693 1653.391 Q359.8693 1653.969 359.0724 1654.297 Q357.9943 1654.75 356.6974 1654.75 Q355.1818 1654.75 353.9787 1654.125 Q352.9943 1653.625 352.3068 1652.563 Q351.6193 1651.484 351.6193 1650.203 L351.6193 1649.047 Q351.6193 1647.719 352.2287 1646.578 Q352.8537 1645.422 353.9474 1644.813 Q355.0412 1644.188 356.2756 1644.188 Q357.0099 1644.188 357.6506 1644.359 Q358.3068 1644.516 358.8537 1644.875 Z" style="fill:black;" />
      <text x="376.5881" y="1654.729" textLength="56.0342" lengthAdjust="spacing" font-family="sans-serif" font-size="14" style="fill:black;">Producto</text>
      <line x1="145.82" y1="1665" x2="630.8903" y2="1665" stroke-width="0.5" style="stroke:#181818;" />
      <text x="150.82" y="1683.533" textLength="4.6621" lengthAdjust="spacing" font-family="sans-serif" font-size="14" style="fill:black;">-</text>
      <text x="155.4821" y="1683.533" textLength="12.4414" lengthAdjust="spacing" font-family="sans-serif" font-size="14" font-weight="bold" style="fill:black;">id</text>
      <text x="167.9235" y="1683.533" textLength="60.7031" lengthAdjust="spacing" font-family="sans-serif" font-size="14" style="fill:black;">: int «PK»</text>
      <text x="150.82" y="1701.143" textLength="96.4824" lengthAdjust="spacing" font-family="sans-serif" font-size="14" style="fill:black;">-nombre: String</text>
      <text x="150.82" y="1718.752" textLength="92.6133" lengthAdjust="spacing" font-family="sans-serif" font-size="14" style="fill:black;">-precio: double</text>
      <text x="150.82" y="1736.361" textLength="106.6064" lengthAdjust="spacing" font-family="sans-serif" font-size="14" style="fill:black;">-categoria: String</text>
      <text x="150.82" y="1753.971" textLength="59.9033" lengthAdjust="spacing" font-family="sans-serif" font-size="14" style="fill:black;">-stock: int</text>
      <line x1="145.82" y1="1761.047" x2="630.8903" y2="1761.047" stroke-width="0.5" style="stroke:#181818;" />
      <text x="150.82" y="1779.58" textLength="475.0703" lengthAdjust="spacing" font-family="sans-serif" font-size="14" style="fill:black;">+Producto(id: int, nombre: String, precio: double, categoria: String, stock: int)</text>
      <text x="150.82" y="1797.189" textLength="211.251" lengthAdjust="spacing" font-family="sans-serif" font-size="14" style="fill:black;">+setNombre(nombre: String): void</text>
      <text x="150.82" y="1814.799" textLength="197.2715" lengthAdjust="spacing" font-family="sans-serif" font-size="14" style="fill:black;">+setPrecio(precio: double): void</text>
      <text x="150.82" y="1832.408" textLength="232.2852" lengthAdjust="spacing" font-family="sans-serif" font-size="14" style="fill:black;">+setCategoria(categoria: String): void</text>
      <text x="150.82" y="1850.018" textLength="159.8926" lengthAdjust="spacing" font-family="sans-serif" font-size="14" style="fill:black;">+setStock(stock: int): void</text>
      <text x="150.82" y="1867.627" textLength="71.2031" lengthAdjust="spacing" font-family="sans-serif" font-size="14" style="fill:black;">+getId(): int</text>
      <text x="150.82" y="1885.236" textLength="131.1064" lengthAdjust="spacing" font-family="sans-serif" font-size="14" style="fill:black;">+getNombre(): String</text>
      <text x="150.82" y="1902.846" textLength="126.4648" lengthAdjust="spacing" font-family="sans-serif" font-size="14" style="fill:black;">+getPrecio(): double</text>
      <text x="150.82" y="1920.455" textLength="142.0166" lengthAdjust="spacing" font-family="sans-serif" font-size="14" style="fill:black;">+getCategoria(): String</text>
      <text x="150.82" y="1938.064" textLength="94.541" lengthAdjust="spacing" font-family="sans-serif" font-size="14" style="fill:black;">+getStock(): int</text>
    </g>
    <g id="elem_Venta">
      <rect x="140.82" y="854" width="396.8564" height="347.3594" rx="2.5" ry="2.5" id="Venta" stroke-width="0.5" codeLine="47" style="fill:#F1F1F1;stroke:#181818;" />
      <ellipse cx="316.7053" cy="870" rx="11" ry="11" stroke-width="1" style="fill:#ADD1B2;stroke:#181818;" />
      <path d="M319.4709 865.875 Q319.6271 865.6563 319.8146 865.5469 Q320.0021 865.4375 320.2209 865.4375 Q320.5959 865.4375 320.8303 865.7031 Q321.0646 865.9531 321.0646 866.5625 L321.0646 868.0156 Q321.0646 868.625 320.8303 868.8906 Q320.5959 869.1563 320.2209 869.1563 Q319.8771 869.1563 319.674 868.9531 Q319.4709 868.7656 319.3615 868.25 Q319.3146 867.8906 319.1271 867.7031 Q318.799 867.3281 318.1896 867.1094 Q317.5803 866.8906 316.9553 866.8906 Q316.1896 866.8906 315.549 867.2188 Q314.924 867.5469 314.424 868.2969 Q313.9396 869.0469 313.9396 870.0781 L313.9396 871.1719 Q313.9396 872.4063 314.8303 873.2344 Q315.7209 874.0469 317.3146 874.0469 Q318.2521 874.0469 318.9084 873.7969 Q319.299 873.6406 319.7209 873.2031 Q319.9865 872.9375 320.1271 872.8594 Q320.2834 872.7813 320.4865 872.7813 Q320.8146 872.7813 321.0646 873.0469 Q321.3303 873.2969 321.3303 873.6406 Q321.3303 873.9844 320.9865 874.3906 Q320.4865 874.9688 319.6896 875.2969 Q318.6115 875.75 317.3146 875.75 Q315.799 875.75 314.5959 875.125 Q313.6115 874.625 312.924 873.5625 Q312.2365 872.4844 312.2365 871.2031 L312.2365 870.0469 Q312.2365 868.7188 312.8459 867.5781 Q313.4709 866.4219 314.5646 865.8125 Q315.6584 865.1875 316.8928 865.1875 Q317.6271 865.1875 318.2678 865.3594 Q318.924 865.5156 319.4709 865.875 Z" style="fill:black;" />
      <text x="337.2053" y="875.7285" textLength="36.5859" lengthAdjust="spacing" font-family="sans-serif" font-size="14" style="fill:black;">Venta</text>
      <line x1="141.82" y1="886" x2="536.6764" y2="886" stroke-width="0.5" style="stroke:#181818;" />
      <text x="146.82" y="904.5332" textLength="4.6621" lengthAdjust="spacing" font-family="sans-serif" font-size="14" style="fill:black;">-</text>
      <text x="151.4821" y="904.5332" textLength="12.4414" lengthAdjust="spacing" font-family="sans-serif" font-size="14" font-weight="bold" style="fill:black;">id</text>
      <text x="163.9235" y="904.5332" textLength="60.7031" lengthAdjust="spacing" font-family="sans-serif" font-size="14" style="fill:black;">: int «PK»</text>
      <text x="146.82" y="922.1426" textLength="4.6621" lengthAdjust="spacing" font-family="sans-serif" font-size="14" style="fill:black;">-</text>
      <text x="151.4821" y="922.1426" textLength="59.1172" lengthAdjust="spacing" font-family="sans-serif" font-size="14" font-weight="bold" style="fill:black;">idCliente</text>
      <text x="210.5993" y="922.1426" textLength="81.7031" lengthAdjust="spacing" font-family="sans-serif" font-size="14" style="fill:black;">: String «FK»</text>
      <text x="146.82" y="939.752" textLength="241.2676" lengthAdjust="spacing" font-family="sans-serif" font-size="14" style="fill:black;">-productosVenta: List&lt;ProductoVenta&gt;</text>
      <text x="146.82" y="957.3613" textLength="80.9443" lengthAdjust="spacing" font-family="sans-serif" font-size="14" style="fill:black;">-total: double</text>
      <text x="146.82" y="974.9707" textLength="140.8408" lengthAdjust="spacing" font-family="sans-serif" font-size="14" style="fill:black;">-fecha: LocalDateTime</text>
      <text x="146.82" y="992.5801" textLength="91.0479" lengthAdjust="spacing" font-family="sans-serif" font-size="14" style="fill:black;">-estado: String</text>
      <line x1="141.82" y1="999.6563" x2="536.6764" y2="999.6563" stroke-width="0.5" style="stroke:#181818;" />
      <text x="146.82" y="1018.19" textLength="273.5332" lengthAdjust="spacing" font-family="sans-serif" font-size="14" style="fill:black;">+Venta(id: int, idCliente: String, fecha: Date)</text>
      <text x="146.82" y="1035.799" textLength="71.2031" lengthAdjust="spacing" font-family="sans-serif" font-size="14" style="fill:black;">+getId(): int</text>
      <text x="146.82" y="1053.408" textLength="136.5684" lengthAdjust="spacing" font-family="sans-serif" font-size="14" style="fill:black;">+getIdCliente(): String</text>
      <text x="146.82" y="1071.018" textLength="275.1191" lengthAdjust="spacing" font-family="sans-serif" font-size="14" style="fill:black;">+getProductosVenta(): List&lt;ProductoVenta&gt;</text>
      <text x="146.82" y="1088.627" textLength="117.9063" lengthAdjust="spacing" font-family="sans-serif" font-size="14" style="fill:black;">+getTotal(): double</text>
      <text x="146.82" y="1106.236" textLength="177.8027" lengthAdjust="spacing" font-family="sans-serif" font-size="14" style="fill:black;">+getFecha(): LocalDateTime</text>
      <text x="146.82" y="1123.846" textLength="124.8994" lengthAdjust="spacing" font-family="sans-serif" font-size="14" style="fill:black;">+getEstado(): String</text>
      <text x="146.82" y="1141.455" textLength="384.8564" lengthAdjust="spacing" font-family="sans-serif" font-size="14" style="fill:black;">+agregarProducto(producto: Producto, cantidad: int ): boolean</text>
      <text x="146.82" y="1159.064" textLength="308.5674" lengthAdjust="spacing" font-family="sans-serif" font-size="14" style="fill:black;">+removerProducto(idProductoVenta: int): boolean</text>
      <text x="146.82" y="1176.674" textLength="154.4717" lengthAdjust="spacing" font-family="sans-serif" font-size="14" style="fill:black;">+calcularTotal(): boolean</text>
      <text x="146.82" y="1194.283" textLength="159.9336" lengthAdjust="spacing" font-family="sans-serif" font-size="14" style="fill:black;">+finalizarVenta(): boolean</text>
    </g>
    <g id="elem_ProductoVenta">
      <rect x="127.32" y="1261" width="557.9316" height="312.1406" rx="2.5" ry="2.5" id="ProductoVenta" stroke-width="0.5" codeLine="72" style="fill:#F1F1F1;stroke:#181818;" />
      <ellipse cx="355.7258" cy="1277" rx="11" ry="11" stroke-width="1" style="fill:#ADD1B2;stroke:#181818;" />
      <path d="M358.4914 1272.875 Q358.6476 1272.656 358.8351 1272.547 Q359.0226 1272.438 359.2414 1272.438 Q359.6164 1272.438 359.8508 1272.703 Q360.0851 1272.953 360.0851 1273.563 L360.0851 1275.016 Q360.0851 1275.625 359.8508 1275.891 Q359.6164 1276.156 359.2414 1276.156 Q358.8976 1276.156 358.6945 1275.953 Q358.4914 1275.766 358.382 1275.25 Q358.3351 1274.891 358.1476 1274.703 Q357.8195 1274.328 357.2101 1274.109 Q356.6008 1273.891 355.9758 1273.891 Q355.2101 1273.891 354.5695 1274.219 Q353.9445 1274.547 353.4445 1275.297 Q352.9601 1276.047 352.9601 1277.078 L352.9601 1278.172 Q352.9601 1279.406 353.8508 1280.234 Q354.7414 1281.047 356.3351 1281.047 Q357.2726 1281.047 357.9289 1280.797 Q358.3195 1280.641 358.7414 1280.203 Q359.007 1279.938 359.1476 1279.859 Q359.3039 1279.781 359.507 1279.781 Q359.8351 1279.781 360.0851 1280.047 Q360.3508 1280.297 360.3508 1280.641 Q360.3508 1280.984 360.007 1281.391 Q359.507 1281.969 358.7101 1282.297 Q357.632 1282.75 356.3351 1282.75 Q354.8195 1282.75 353.6164 1282.125 Q352.632 1281.625 351.9445 1280.563 Q351.257 1279.484 351.257 1278.203 L351.257 1277.047 Q351.257 1275.719 351.8664 1274.578 Q352.4914 1273.422 353.5851 1272.813 Q354.6789 1272.188 355.9133 1272.188 Q356.6476 1272.188 357.2883 1272.359 Q357.9445 1272.516 358.4914 1272.875 Z" style="fill:black;" />
      <text x="376.2258" y="1282.729" textLength="92.6201" lengthAdjust="spacing" font-family="sans-serif" font-size="14" style="fill:black;">ProductoVenta</text>
      <line x1="128.32" y1="1293" x2="684.2516" y2="1293" stroke-width="0.5" style="stroke:#181818;" />
      <text x="133.32" y="1311.533" textLength="4.6621" lengthAdjust="spacing" font-family="sans-serif" font-size="14" style="fill:black;">-</text>
      <text x="137.9821" y="1311.533" textLength="12.4414" lengthAdjust="spacing" font-family="sans-serif" font-size="14" font-weight="bold" style="fill:black;">id</text>
      <text x="150.4235" y="1311.533" textLength="60.7031" lengthAdjust="spacing" font-family="sans-serif" font-size="14" style="fill:black;">: int «PK»</text>
      <text x="133.32" y="1329.143" textLength="4.6621" lengthAdjust="spacing" font-family="sans-serif" font-size="14" style="fill:black;">-</text>
      <text x="137.9821" y="1329.143" textLength="73.8828" lengthAdjust="spacing" font-family="sans-serif" font-size="14" font-weight="bold" style="fill:black;">idProducto</text>
      <text x="211.8649" y="1329.143" textLength="59.917" lengthAdjust="spacing" font-family="sans-serif" font-size="14" style="fill:black;">: int «FK»</text>
      <text x="133.32" y="1346.752" textLength="4.6621" lengthAdjust="spacing" font-family="sans-serif" font-size="14" style="fill:black;">-</text>
      <text x="137.9821" y="1346.752" textLength="50.5654" lengthAdjust="spacing" font-family="sans-serif" font-size="14" font-weight="bold" style="fill:black;">idVenta</text>
      <text x="188.5475" y="1346.752" textLength="59.917" lengthAdjust="spacing" font-family="sans-serif" font-size="14" style="fill:black;">: int «FK»</text>
      <text x="133.32" y="1364.361" textLength="80.1582" lengthAdjust="spacing" font-family="sans-serif" font-size="14" style="fill:black;">-cantidad: int</text>
      <text x="133.32" y="1381.971" textLength="140.8545" lengthAdjust="spacing" font-family="sans-serif" font-size="14" style="fill:black;">-precioUnitario: double</text>
      <text x="133.32" y="1399.58" textLength="103.5166" lengthAdjust="spacing" font-family="sans-serif" font-size="14" style="fill:black;">-subtotal: double</text>
      <line x1="128.32" y1="1406.656" x2="684.2516" y2="1406.656" stroke-width="0.5" style="stroke:#181818;" />
      <text x="133.32" y="1425.189" textLength="545.9316" lengthAdjust="spacing" font-family="sans-serif" font-size="14" style="fill:black;">+ProductoVenta(id: int, idProducto: int, idVenta: int, cantidad: int, precioUnitario: double)</text>
      <text x="133.32" y="1442.799" textLength="201.1748" lengthAdjust="spacing" font-family="sans-serif" font-size="14" style="fill:black;">+setCantidad(cantidad: int): void</text>
      <text x="133.32" y="1460.408" textLength="71.2031" lengthAdjust="spacing" font-family="sans-serif" font-size="14" style="fill:black;">+getId(): int</text>
      <text x="133.32" y="1478.018" textLength="164.5889" lengthAdjust="spacing" font-family="sans-serif" font-size="14" style="fill:black;">+getIdProducto(): int «FK»</text>
      <text x="133.32" y="1495.627" textLength="145.1406" lengthAdjust="spacing" font-family="sans-serif" font-size="14" style="fill:black;">+getIdVenta(): int «FK»</text>
      <text x="133.32" y="1513.236" textLength="115.5684" lengthAdjust="spacing" font-family="sans-serif" font-size="14" style="fill:black;">+getCantidad(): int</text>
      <text x="133.32" y="1530.846" textLength="174.7061" lengthAdjust="spacing" font-family="sans-serif" font-size="14" style="fill:black;">+getPrecioUnitario(): double</text>
      <text x="133.32" y="1548.455" textLength="138.1543" lengthAdjust="spacing" font-family="sans-serif" font-size="14" style="fill:black;">+getSubtotal(): double</text>
      <text x="133.32" y="1566.064" textLength="166.9336" lengthAdjust="spacing" font-family="sans-serif" font-size="14" style="fill:black;">+calcularSubtotal(): double</text>
    </g>
    <g id="elem_Prueba">
      <rect x="296.32" y="86" width="257.5195" height="408.1875" rx="2.5" ry="2.5" id="Prueba" stroke-width="0.5" codeLine="99" style="fill:#F1F1F1;stroke:#181818;" />
      <ellipse cx="398.2575" cy="102" rx="11" ry="11" stroke-width="1" style="fill:#ADD1B2;stroke:#181818;" />
      <path d="M401.0231 97.875 Q401.1794 97.6563 401.3669 97.5469 Q401.5544 97.4375 401.7731 97.4375 Q402.1481 97.4375 402.3825 97.7031 Q402.6169 97.9531 402.6169 98.5625 L402.6169 100.0156 Q402.6169 100.625 402.3825 100.8906 Q402.1481 101.1563 401.7731 101.1563 Q401.4294 101.1563 401.2263 100.9531 Q401.0231 100.7656 400.9138 100.25 Q400.8669 99.8906 400.6794 99.7031 Q400.3513 99.3281 399.7419 99.1094 Q399.1325 98.8906 398.5075 98.8906 Q397.7419 98.8906 397.1013 99.2188 Q396.4763 99.5469 395.9763 100.2969 Q395.4919 101.0469 395.4919 102.0781 L395.4919 103.1719 Q395.4919 104.4063 396.3825 105.2344 Q397.2731 106.0469 398.8669 106.0469 Q399.8044 106.0469 400.4606 105.7969 Q400.8513 105.6406 401.2731 105.2031 Q401.5388 104.9375 401.6794 104.8594 Q401.8356 104.7813 402.0388 104.7813 Q402.3669 104.7813 402.6169 105.0469 Q402.8825 105.2969 402.8825 105.6406 Q402.8825 105.9844 402.5388 106.3906 Q402.0388 106.9688 401.2419 107.2969 Q400.1638 107.75 398.8669 107.75 Q397.3513 107.75 396.1481 107.125 Q395.1638 106.625 394.4763 105.5625 Q393.7888 104.4844 393.7888 103.2031 L393.7888 102.0469 Q393.7888 100.7188 394.3981 99.5781 Q395.0231 98.4219 396.1169 97.8125 Q397.2106 97.1875 398.445 97.1875 Q399.1794 97.1875 399.82 97.3594 Q400.4763 97.5156 401.0231 97.875 Z" style="fill:black;" />
      <text x="418.7575" y="107.7285" textLength="45.1445" lengthAdjust="spacing" font-family="sans-serif" font-size="14" style="fill:black;">Prueba</text>
      <line x1="297.32" y1="118" x2="552.8395" y2="118" stroke-width="0.5" style="stroke:#181818;" />
      <text x="302.32" y="158.1426" textLength="170.0166" lengthAdjust="spacing" font-family="sans-serif" font-size="14" text-decoration="underline" style="fill:black;">+probarCrearCliente(): void</text>
      <text x="302.32" y="175.752" textLength="182.4717" lengthAdjust="spacing" font-family="sans-serif" font-size="14" text-decoration="underline" style="fill:black;">+probarCrearProducto(): void</text>
      <text x="302.32" y="193.3613" textLength="163.0234" lengthAdjust="spacing" font-family="sans-serif" font-size="14" text-decoration="underline" style="fill:black;">+probarCrearVenta(): void</text>
      <text x="302.32" y="210.9707" textLength="219.0576" lengthAdjust="spacing" font-family="sans-serif" font-size="14" text-decoration="underline" style="fill:black;">+probarCrearProductoVenta(): void</text>
      <line x1="297.32" y1="134.8047" x2="407.5763" y2="134.8047" stroke-width="1" stroke-dasharray="1 2" style="stroke:#181818;" />
      <text x="407.5763" y="140.0332" textLength="35.0068" lengthAdjust="spacing" font-family="sans-serif" font-size="14" style="fill:black;">Crear</text>
      <line x1="442.5832" y1="134.8047" x2="552.8395" y2="134.8047" stroke-width="1" stroke-dasharray="1 2" style="stroke:#181818;" />
      <text x="302.32" y="250.1895" textLength="163.0303" lengthAdjust="spacing" font-family="sans-serif" font-size="14" text-decoration="underline" style="fill:black;">+probarLeerCliente(): void</text>
      <text x="302.32" y="267.7988" textLength="175.4854" lengthAdjust="spacing" font-family="sans-serif" font-size="14" text-decoration="underline" style="fill:black;">+probarLeerProducto(): void</text>
      <text x="302.32" y="285.4082" textLength="156.0371" lengthAdjust="spacing" font-family="sans-serif" font-size="14" text-decoration="underline" style="fill:black;">+probarLeerVenta(): void</text>
      <text x="302.32" y="303.0176" textLength="212.0713" lengthAdjust="spacing" font-family="sans-serif" font-size="14" text-decoration="underline" style="fill:black;">+probarLeerProductoVenta(): void</text>
      <line x1="297.32" y1="226.8516" x2="411.0695" y2="226.8516" stroke-width="1" stroke-dasharray="1 2" style="stroke:#181818;" />
      <text x="411.0695" y="232.0801" textLength="28.0205" lengthAdjust="spacing" font-family="sans-serif" font-size="14" style="fill:black;">Leer</text>
      <line x1="439.09" y1="226.8516" x2="552.8395" y2="226.8516" stroke-width="1" stroke-dasharray="1 2" style="stroke:#181818;" />
      <text x="302.32" y="342.2363" textLength="196.4785" lengthAdjust="spacing" font-family="sans-serif" font-size="14" text-decoration="underline" style="fill:black;">+probarActualizarCliente(): void</text>
      <text x="302.32" y="359.8457" textLength="208.9336" lengthAdjust="spacing" font-family="sans-serif" font-size="14" text-decoration="underline" style="fill:black;">+probarActualizarProducto(): void</text>
      <text x="302.32" y="377.4551" textLength="189.4854" lengthAdjust="spacing" font-family="sans-serif" font-size="14" text-decoration="underline" style="fill:black;">+probarActualizarVenta(): void</text>
      <text x="302.32" y="395.0645" textLength="245.5195" lengthAdjust="spacing" font-family="sans-serif" font-size="14" text-decoration="underline" style="fill:black;">+probarActualizarProductoVenta(): void</text>
      <line x1="297.32" y1="318.8984" x2="394.3454" y2="318.8984" stroke-width="1" stroke-dasharray="1 2" style="stroke:#181818;" />
      <text x="394.3454" y="324.127" textLength="61.4688" lengthAdjust="spacing" font-family="sans-serif" font-size="14" style="fill:black;">Actualizar</text>
      <line x1="455.8141" y1="318.8984" x2="552.8395" y2="318.8984" stroke-width="1" stroke-dasharray="1 2" style="stroke:#181818;" />
      <text x="302.32" y="434.2832" textLength="185.5752" lengthAdjust="spacing" font-family="sans-serif" font-size="14" text-decoration="underline" style="fill:black;">+probarEliminarCliente(): void</text>
      <text x="302.32" y="451.8926" textLength="198.0303" lengthAdjust="spacing" font-family="sans-serif" font-size="14" text-decoration="underline" style="fill:black;">+probarEliminarProducto(): void</text>
      <text x="302.32" y="469.502" textLength="178.582" lengthAdjust="spacing" font-family="sans-serif" font-size="14" text-decoration="underline" style="fill:black;">+probarEliminarVenta(): void</text>
      <text x="302.32" y="487.1113" textLength="234.6162" lengthAdjust="spacing" font-family="sans-serif" font-size="14" text-decoration="underline" style="fill:black;">+probarEliminarProductoVenta(): void</text>
      <line x1="297.32" y1="410.9453" x2="399.7971" y2="410.9453" stroke-width="1" stroke-dasharray="1 2" style="stroke:#181818;" />
      <text x="399.7971" y="416.1738" textLength="50.5654" lengthAdjust="spacing" font-family="sans-serif" font-size="14" style="fill:black;">Eliminar</text>
      <line x1="450.3625" y1="410.9453" x2="552.8395" y2="410.9453" stroke-width="1" stroke-dasharray="1 2" style="stroke:#181818;" />
    </g>
    <g id="link_Cliente_Venta">
      <path d="M322.4 794.05 C323.79 813.16 325.26 833.42 326.74 853.7" id="Cliente-Venta" stroke-width="1" codeLine="134" style="fill:none;stroke:#181818;" />
      <text x="301.2459" y="815.6196" textLength="21.6836" lengthAdjust="spacing" font-family="sans-serif" font-size="13" style="fill:black;">0..1</text>
      <text x="306.7544" y="842.9571" textLength="19.5127" lengthAdjust="spacing" font-family="sans-serif" font-size="13" style="fill:black;">0..*</text>
    </g>
    <g id="link_Venta_ProductoVenta">
      <path d="M371.1841 1212.825 C374.6241 1232.725 376.07 1241.09 379.47 1260.74" id="Venta-backto-ProductoVenta" stroke-width="1" codeLine="137" style="fill:none;stroke:#181818;" />
      <polygon points="369.14,1201 366.2205,1207.594 371.1841,1212.825 374.1036,1206.231 369.14,1201" stroke-width="1" style="fill:#181818;stroke:#181818;" />
      <text x="363.3411" y="1222.719" textLength="7.23" lengthAdjust="spacing" font-family="sans-serif" font-size="13" style="fill:black;">1</text>
      <text x="358.7234" y="1250.284" textLength="19.5127" lengthAdjust="spacing" font-family="sans-serif" font-size="13" style="fill:black;">1..*</text>
    </g>
    <g id="link_ProductoVenta_Producto">
      <path d="M398.77 1573.04 C397.81 1592.83 396.83 1613.09 395.86 1632.88" id="ProductoVenta-Producto" stroke-width="1" codeLine="140" style="fill:none;stroke:#181818;" />
      <text x="391.242" y="1594.486" textLength="7.23" lengthAdjust="spacing" font-family="sans-serif" font-size="13" style="fill:black;">1</text>
      <text x="389.0724" y="1621.918" textLength="7.23" lengthAdjust="spacing" font-family="sans-serif" font-size="13" style="fill:black;">1</text>
    </g>
    <g id="link_Prueba_Venta">
      <path d="M510.98 494.05 C513.82 504.75 516.3 515.44 518.32 526 C540.63 643 556.69 681.24 518.32 794 C511.34 814.5 504.7549 829.3967 493.6049 848.6667" id="Prueba-to-Venta" stroke-width="1" stroke-dasharray="7 7" codeLine="143" style="fill:none;stroke:#181818;" />
      <polygon points="490.6,853.86 498.5696,848.0734 493.1041,849.5323 491.6452,844.0668 490.6,853.86" stroke-width="1" style="fill:#181818;stroke:#181818;" />
    </g>
    <g id="link_Prueba_Cliente">
      <path d="M367.46 494.28 C360.07 520.26 354.3738 540.2696 347.6138 563.9996" id="Prueba-to-Cliente" stroke-width="1" stroke-dasharray="7 7" codeLine="144" style="fill:none;stroke:#181818;" />
      <polygon points="345.97,569.77 352.2827,562.2102 347.3399,564.9613 344.5888,560.0185 345.97,569.77" stroke-width="1" style="fill:#181818;stroke:#181818;" />
    </g>
    <g id="link_Prueba_Producto">
      <path d="M295.97 350.64 C227.3 389.88 149.24 448.39 110.32 526 C6 733.97 7.81 1364.13 110.32 1573 C120.87 1594.5 130.7972 1609.92 146.6872 1628.31" id="Prueba-to-Producto" stroke-width="1" stroke-dasharray="7 7" codeLine="145" style="fill:none;stroke:#181818;" />
      <polygon points="150.61,1632.85 147.7524,1623.425 147.341,1629.067 141.6991,1628.655 150.61,1632.85" stroke-width="1" style="fill:#181818;stroke:#181818;" />
    </g>
    <g id="link_Prueba_ProductoVenta">
      <path d="M528.9 494.25 C532.45 504.85 535.63 515.47 538.32 526 C612.56 816.77 644.86 914.58 555.32 1201 C548.95 1221.37 542.7637 1236.243 532.2337 1255.543" id="Prueba-to-ProductoVenta" stroke-width="1" stroke-dasharray="7 7" codeLine="146" style="fill:none;stroke:#181818;" />
      <polygon points="529.36,1260.81 537.1819,1254.825 531.7547,1256.421 530.1592,1250.994 529.36,1260.81" stroke-width="1" style="fill:#181818;stroke:#181818;" />
    </g>
  </g>
  <title>dreams</title>
  <metadata>
    <rdf:RDF xmlns:rdf="http://www.w3.org/1999/02/22-rdf-syntax-ns#" xmlns:dc="http://purl.org/dc/elements/1.1/" xmlns:puv="https://github.com/Fruchtzwerg94/PlantUmlViewer">
      <puv:product>PlantUML Viewer by Philipp Schmidt</puv:product>
      <puv:version>1.8.0.12</puv:version>
      <puv:plantumlviewer>1.2024.8</puv:plantumlviewer>
      <rdf:Description>
        <dc:creator>FERNANDOLENOVO\jefec</dc:creator>
        <dc:date>2025-07-22T12:05:27.3461968Z</dc:date>
        <dc:source>dreams.wsd</dc:source>
        <dc:title>dreams</dc:title>
        <dc:format>image/svg</dc:format>
        <puv:diagram>1</puv:diagram>
        <puv:page>1</puv:page>
      </rdf:Description>
    </rdf:RDF>
  </metadata>
  <desc>@startuml dreams

    skinparam classAttributeIconSize 0
    
    package dreams.src #DDDDDD {
    
        class Cliente {
        '--- Atributos ---
            - **id**: String &lt;&lt;PK&gt;&gt;
            - nombre: String
            - email: String
        '--- Método Constructor ---
            + Cliente(id: String, nombre: String, email: String)
        '--- Métodos Setters ---
            + setNombre(nombre: String): void
            + setEmail(email: String): void
        '--- Métodos Getter ---
            + getId(): String
            + getNombre(): String
            + getEmail(): String
        '--- Métodos Comportamiento ---
            + actualizarInformacion(nombre: String, email: String): void
        }
        
        class Producto {
        '--- Atributos ---
            - **id**: int &lt;&lt;PK&gt;&gt;
            - nombre: String
            - precio: double
            - categoria: String
            - stock: int
        '--- Método Constructor ---
            + Producto(id: int, nombre: String, precio: double, categoria: String, stock: int)
        '--- Métodos Setters ---
            + setNombre(nombre: String): void
            + setPrecio(precio: double): void
            + setCategoria(categoria: String): void
            + setStock(stock: int): void
        '--- Métodos Getters ---
            + getId(): int
            + getNombre(): String
            + getPrecio(): double
            + getCategoria(): String
            + getStock(): int
        '--- Métodos Comportamiento ---
        }
        
        class Venta {
        '--- Atributos ---
            - **id**: int &lt;&lt;PK&gt;&gt;
            - **idCliente**: String &lt;&lt;FK&gt;&gt;
            - productosVenta: List&lt;ProductoVenta&gt;
            - total: double
            - fecha: LocalDateTime
            - estado: String
        '--- Método Constructor ---
            + Venta(id: int, idCliente: String, fecha: Date)
        '--- Métodos Setters ---
        '--- Métodos Getters ---
            + getId(): int
            + getIdCliente(): String
            + getProductosVenta(): List&lt;ProductoVenta&gt;
            + getTotal(): double
            + getFecha(): LocalDateTime
            + getEstado(): String
        '--- Métodos Comportamiento ---
            + agregarProducto(producto: Producto, cantidad: int ): boolean
            + removerProducto(idProductoVenta: int): boolean
            + calcularTotal(): boolean
            + finalizarVenta(): boolean
        }
        
        class ProductoVenta {
        '--- Atributos ---
            - **id**: int &lt;&lt;PK&gt;&gt;
            - **idProducto**: int &lt;&lt;FK&gt;&gt;
            - **idVenta**: int &lt;&lt;FK&gt;&gt;
            - cantidad: int
            - precioUnitario: double
            - subtotal: double
        '--- Método Constructor ---
            + ProductoVenta(id: int, idProducto: int, idVenta: int, cantidad: int, precioUnitario: double)
        '--- Métodos Setters ---
            + setCantidad(cantidad: int): void
        '--- Métodos Getters ---
            + getId(): int
            + getIdProducto(): int &lt;&lt;FK&gt;&gt;
            + getIdVenta(): int &lt;&lt;FK&gt;&gt;
            + getCantidad(): int
            + getPrecioUnitario(): double
            + getSubtotal(): double
        '--- Métodos Comportamiento ---
            + calcularSubtotal(): double
        }
        
    }
    
    package dreams.test #AAAAAA {
    
        class Prueba {
        '--- Métodos Crear (Create) ---
            .. Crear ..
            + {static} probarCrearCliente(): void
            + {static} probarCrearProducto(): void
            + {static} probarCrearVenta(): void
            + {static} probarCrearProductoVenta(): void
        '--- Métodos Leer (Read) ---
            .. Leer ..
            + {static} probarLeerCliente(): void
            + {static} probarLeerProducto(): void
            + {static} probarLeerVenta(): void
            + {static} probarLeerProductoVenta(): void
        '--- Métodos Actualizar (Update) ---
            .. Actualizar ..
            + {static} probarActualizarCliente(): void
            + {static} probarActualizarProducto(): void
            + {static} probarActualizarVenta(): void
            + {static} probarActualizarProductoVenta(): void
        '--- Métodos Eliminar (Delete) ---
            .. Eliminar ..
            + {static} probarEliminarCliente(): void
            + {static} probarEliminarProducto(): void
            + {static} probarEliminarVenta(): void
            + {static} probarEliminarProductoVenta(): void
        }
        
    }
    
    '--- Relaciones ---
    
    ' Cada venta debe tener un cliente asignado.
    'Cliente "1" -- "0..*" Venta
    
    ' Una venta podría no tener un cliente asignado.
    Cliente "0..1" -- "0..*" Venta
    
    ' Una Venta contiene uno o más ProductoVenta y la vida de ProductoVenta depende de la Venta.
    Venta "1" *-- "1..*" ProductoVenta
    
    ' Cada entrada de ProductoVenta se refiere a exactamente un Producto
    ProductoVenta "1" -- "1" Producto
    
    ' Prueba depende de las otras clases para realizar sus operaciones, pero no tiene una asociación directa
    Prueba ..&gt; Venta
    Prueba ..&gt; Cliente
    Prueba ..&gt; Producto
    Prueba ..&gt; ProductoVenta
    
@enduml</desc>
</svg>