<svg xmlns="http://www.w3.org/2000/svg" xmlns:xlink="http://www.w3.org/1999/xlink" contentStyleType="text/css" data-diagram-type="CLASS" height="3006.25px" preserveAspectRatio="none" style="width:2245px;height:3006px;" version="1.1" viewBox="0 0 2245 3006" width="2245.8333px" zoomAndPan="magnify"><defs><linearGradient id="g1d5982hfxuuxr0" x1="50%" x2="50%" y1="0%" y2="100%"><stop offset="0%" stop-color="#B8B8B8"/><stop offset="100%" stop-color="#6B6B6B"/></linearGradient><linearGradient id="g1d5982hfxuuxr1" x1="50%" x2="50%" y1="0%" y2="100%"><stop offset="0%" stop-color="#7C9AB9"/><stop offset="100%" stop-color="#304D6D"/></linearGradient><linearGradient id="g1d5982hfxuuxr2" x1="50%" x2="50%" y1="0%" y2="100%"><stop offset="0%" stop-color="#7C9AB9"/><stop offset="100%" stop-color="#446E9B"/></linearGradient></defs><g><!--cluster dreams--><g class="cluster" data-entity="dreams" data-source-line="15" data-uid="ent0004" id="cluster_dreams"><path d="M20.8333,16.6667 L81.6569,16.6667 A6.25,6.25 0 0 1 85.8236,20.8333 L93.1152,47.8841 L2229.1667,47.8841 A4.1667,4.1667 0 0 1 2233.3333,52.0508 L2233.3333,2990.0729 A4.1667,4.1667 0 0 1 2229.1667,2994.2396 L20.8333,2994.2396 A4.1667,4.1667 0 0 1 16.6667,2990.0729 L16.6667,20.8333 A4.1667,4.1667 0 0 1 20.8333,16.6667" fill="url(#g1d5982hfxuuxr0)" style="stroke:#446E9B;stroke-width:2.0833;"/><line style="stroke:#446E9B;stroke-width:2.0833;" x1="16.6667" x2="93.1152" y1="47.8841" y2="47.8841"/><text fill="#446E9B" font-family="'Verdana'" font-size="12.5" font-weight="bold" lengthAdjust="spacing" textLength="52.4902" x="26.0417" y="35.5611">dreams</text></g><!--cluster model--><g class="cluster" data-entity="model" data-source-line="11" data-uid="ent0002" id="cluster_model"><path d="M45.8333,68.75 L97.4894,68.75 A6.25,6.25 0 0 1 101.6561,72.9167 L108.9478,99.9674 L1713.5417,99.9674 A4.1667,4.1667 0 0 1 1717.7083,104.1341 L1717.7083,2965.0729 A4.1667,4.1667 0 0 1 1713.5417,2969.2396 L45.8333,2969.2396 A4.1667,4.1667 0 0 1 41.6667,2965.0729 L41.6667,72.9167 A4.1667,4.1667 0 0 1 45.8333,68.75" fill="#999999" style="stroke:#446E9B;stroke-width:2.0833;"/><line style="stroke:#446E9B;stroke-width:2.0833;" x1="41.6667" x2="108.9478" y1="99.9674" y2="99.9674"/><text fill="#446E9B" font-family="'Verdana'" font-size="12.5" font-weight="bold" lengthAdjust="spacing" textLength="43.3228" x="51.0417" y="87.6444">model</text></g><!--class Cliente--><g class="entity" data-entity="Cliente" data-source-line="15" data-uid="ent0003" id="entity_Cliente"><rect fill="url(#g1d5982hfxuuxr1)" height="471.3379" rx="4.1667" ry="4.1667" style="stroke:#304D6D;stroke-width:1.0417;" width="459.8943" x="664.8438" y="112.5"/><rect fill="url(#g1d5982hfxuuxr2)" height="34.1715" rx="4.1667" ry="4.1667" style="stroke:url(#g1d5982hfxuuxr2);stroke-width:1.0417;" width="459.8943" x="664.8438" y="112.5"/><rect fill="url(#g1d5982hfxuuxr2)" height="4.1667" style="stroke:url(#g1d5982hfxuuxr2);stroke-width:1.0417;" width="459.8943" x="664.8438" y="142.5049"/><rect fill="none" height="471.3379" rx="4.1667" ry="4.1667" style="stroke:#304D6D;stroke-width:1.0417;" width="459.8943" x="664.8438" y="112.5"/><ellipse cx="864.7842" cy="129.5858" fill="#B8B8B8" rx="10.4167" ry="10.4167" style="stroke:#6B6B6B;stroke-width:1.0417;"/><path d="M866.6885,134.0129 Q866.2654,134.2244 865.7934,134.3384 Q865.3214,134.4523 864.8168,134.4523 Q862.9613,134.4523 861.9848,133.2479 Q861.0245,132.0272 861.0245,129.7323 Q861.0245,127.4211 861.9848,126.2166 Q862.9613,124.9959 864.8168,124.9959 Q865.3214,124.9959 865.7934,125.1099 Q866.2816,125.2075 866.6885,125.4354 L866.6885,127.4373 Q866.2328,127.0142 865.7934,126.8188 Q865.3539,126.6073 864.8982,126.6073 Q863.9053,126.6073 863.4008,127.4048 Q862.8962,128.186 862.8962,129.7323 Q862.8962,131.2622 863.4008,132.0435 Q863.9053,132.8247 864.8982,132.8247 Q865.3539,132.8247 865.7934,132.6294 Q866.2328,132.4341 866.6885,132.0109 L866.6885,134.0129 Z " fill="#FFFFFF"/><ellipse cx="884.5759" cy="129.0649" fill="#84BE84" rx="-2.0833" ry="-2.0833" style="stroke:#038048;stroke-width:1.0417;"/><text fill="#EEEEEE" font-family="'Verdana'" font-size="11.4583" lengthAdjust="spacing" textLength="40.2217" x="890.8259" y="133.5526">Cliente</text><line style="stroke:#304D6D;stroke-width:1.0417;" x1="665.8854" x2="1123.6964" y1="146.6715" y2="146.6715"/><text fill="#EEEEEE" font-family="'Verdana'" font-size="11.4583" lengthAdjust="spacing" textLength="4.1346" x="676.3021" y="166.6824">-</text><text fill="#EEEEEE" font-family="'Verdana'" font-size="11.4583" font-weight="bold" lengthAdjust="spacing" textLength="12.1297" x="680.4367" y="166.6824">id</text><text fill="#EEEEEE" font-family="'Verdana'" font-size="11.4583" lengthAdjust="spacing" textLength="54.5278" x="692.5664" y="166.6824">: int &#171;PK&#187;</text><text fill="#EEEEEE" font-family="'Verdana'" font-size="11.4583" lengthAdjust="spacing" textLength="90.3015" x="676.3021" y="190.4373">-nombre: String</text><text fill="#EEEEEE" font-family="'Verdana'" font-size="11.4583" lengthAdjust="spacing" textLength="77.4333" x="676.3021" y="214.1922">-email: String</text><text fill="#EEEEEE" font-family="'Verdana'" font-size="11.4583" lengthAdjust="spacing" textLength="92.2373" x="676.3021" y="237.9471">-activo: boolean</text><line style="stroke:#304D6D;stroke-width:1.0417;" x1="665.8854" x2="1123.6964" y1="250.0244" y2="250.0244"/><text fill="#EEEEEE" font-family="'Verdana'" font-size="11.4583" lengthAdjust="spacing" textLength="265.6957" x="676.3021" y="297.9568">+Cliente(id: int, nombre: String, email: String)</text><line style="stroke:#304D6D;stroke-width:1.0417;stroke-dasharray:1.0417,2.0833;" x1="665.8854" x2="849.4616" y1="270.2352" y2="270.2352"/><text fill="#EEEEEE" font-family="'Verdana'" font-size="11.4583" lengthAdjust="spacing" textLength="80.2419" x="854.67" y="273.6811">Constructores</text><line style="stroke:#304D6D;stroke-width:1.0417;stroke-dasharray:1.0417,2.0833;" x1="940.1202" x2="1123.6964" y1="270.2352" y2="270.2352"/><text fill="#EEEEEE" font-family="'Verdana'" font-size="11.4583" lengthAdjust="spacing" textLength="70.4508" x="676.3021" y="349.6333">+getId(): int</text><text fill="#EEEEEE" font-family="'Verdana'" font-size="11.4583" lengthAdjust="spacing" textLength="124.8332" x="676.3021" y="373.3882">+getNombre(): String</text><text fill="#EEEEEE" font-family="'Verdana'" font-size="11.4583" lengthAdjust="spacing" textLength="110.8459" x="676.3021" y="397.143">+getEmail(): String</text><text fill="#EEEEEE" font-family="'Verdana'" font-size="11.4583" lengthAdjust="spacing" textLength="116.6143" x="676.3021" y="420.8979">+isActivo(): boolean</text><line style="stroke:#304D6D;stroke-width:1.0417;stroke-dasharray:1.0417,2.0833;" x1="665.8854" x2="868.2604" y1="321.9116" y2="321.9116"/><text fill="#EEEEEE" font-family="'Verdana'" font-size="11.4583" lengthAdjust="spacing" textLength="42.6442" x="873.4688" y="325.3576">Getters</text><line style="stroke:#304D6D;stroke-width:1.0417;stroke-dasharray:1.0417,2.0833;" x1="921.3214" x2="1123.6964" y1="321.9116" y2="321.9116"/><text fill="#EEEEEE" font-family="'Verdana'" font-size="11.4583" lengthAdjust="spacing" textLength="199.7487" x="676.3021" y="472.5744">+setNombre(nombre: String): void</text><text fill="#EEEEEE" font-family="'Verdana'" font-size="11.4583" lengthAdjust="spacing" textLength="172.8933" x="676.3021" y="496.3292">+setEmail(email: String): void</text><text fill="#EEEEEE" font-family="'Verdana'" font-size="11.4583" lengthAdjust="spacing" textLength="191.5131" x="676.3021" y="520.0841">+setActivo(activo: boolean): void</text><line style="stroke:#304D6D;stroke-width:1.0417;stroke-dasharray:1.0417,2.0833;" x1="665.8854" x2="869.0633" y1="444.8527" y2="444.8527"/><text fill="#EEEEEE" font-family="'Verdana'" font-size="11.4583" lengthAdjust="spacing" textLength="41.0385" x="874.2716" y="448.2986">Setters</text><line style="stroke:#304D6D;stroke-width:1.0417;stroke-dasharray:1.0417,2.0833;" x1="920.5185" x2="1123.6964" y1="444.8527" y2="444.8527"/><text fill="#EEEEEE" font-family="'Verdana'" font-size="11.4583" lengthAdjust="spacing" textLength="436.9776" x="676.3021" y="571.7606">+actualizarInformacion(nombre: String, email: String, activo: boolean): void</text><line style="stroke:#304D6D;stroke-width:1.0417;stroke-dasharray:1.0417,2.0833;" x1="665.8854" x2="849.2294" y1="544.0389" y2="544.0389"/><text fill="#EEEEEE" font-family="'Verdana'" font-size="11.4583" lengthAdjust="spacing" textLength="80.7063" x="854.4378" y="547.4848">Controladores</text><line style="stroke:#304D6D;stroke-width:1.0417;stroke-dasharray:1.0417,2.0833;" x1="940.3524" x2="1123.6964" y1="544.0389" y2="544.0389"/></g><!--class Producto--><g class="entity" data-entity="Producto" data-source-line="36" data-uid="ent0005" id="entity_Producto"><rect fill="url(#g1d5982hfxuuxr1)" height="661.377" rx="4.1667" ry="4.1667" style="stroke:#304D6D;stroke-width:1.0417;" width="431.1422" x="679.2188" y="1923.6458"/><rect fill="url(#g1d5982hfxuuxr2)" height="34.1715" rx="4.1667" ry="4.1667" style="stroke:url(#g1d5982hfxuuxr2);stroke-width:1.0417;" width="431.1422" x="679.2188" y="1923.6458"/><rect fill="url(#g1d5982hfxuuxr2)" height="4.1667" style="stroke:url(#g1d5982hfxuuxr2);stroke-width:1.0417;" width="431.1422" x="679.2188" y="1953.6507"/><rect fill="none" height="661.377" rx="4.1667" ry="4.1667" style="stroke:#304D6D;stroke-width:1.0417;" width="431.1422" x="679.2188" y="1923.6458"/><ellipse cx="859.4093" cy="1940.7316" fill="#B8B8B8" rx="10.4167" ry="10.4167" style="stroke:#6B6B6B;stroke-width:1.0417;"/><path d="M861.3136,1945.1587 Q860.8904,1945.3703 860.4184,1945.4842 Q859.9464,1945.5981 859.4418,1945.5981 Q857.5864,1945.5981 856.6098,1944.3937 Q855.6495,1943.173 855.6495,1940.8781 Q855.6495,1938.5669 856.6098,1937.3625 Q857.5864,1936.1418 859.4418,1936.1418 Q859.9464,1936.1418 860.4184,1936.2557 Q860.9067,1936.3534 861.3136,1936.5812 L861.3136,1938.5832 Q860.8578,1938.16 860.4184,1937.9647 Q859.9789,1937.7531 859.5232,1937.7531 Q858.5304,1937.7531 858.0258,1938.5506 Q857.5213,1939.3319 857.5213,1940.8781 Q857.5213,1942.408 858.0258,1943.1893 Q858.5304,1943.9705 859.5232,1943.9705 Q859.9789,1943.9705 860.4184,1943.7752 Q860.8578,1943.5799 861.3136,1943.1567 L861.3136,1945.1587 Z " fill="#FFFFFF"/><ellipse cx="879.2009" cy="1940.2108" fill="#84BE84" rx="-2.0833" ry="-2.0833" style="stroke:#038048;stroke-width:1.0417;"/><text fill="#EEEEEE" font-family="'Verdana'" font-size="11.4583" lengthAdjust="spacing" textLength="50.9694" x="885.4509" y="1944.6984">Producto</text><line style="stroke:#304D6D;stroke-width:1.0417;" x1="680.2604" x2="1109.3193" y1="1957.8174" y2="1957.8174"/><text fill="#EEEEEE" font-family="'Verdana'" font-size="11.4583" lengthAdjust="spacing" textLength="9.6008" x="690.6771" y="1977.8283">#</text><text fill="#EEEEEE" font-family="'Verdana'" font-size="11.4583" font-weight="bold" lengthAdjust="spacing" textLength="12.1297" x="700.2779" y="1977.8283">id</text><text fill="#EEEEEE" font-family="'Verdana'" font-size="11.4583" lengthAdjust="spacing" textLength="54.5278" x="712.4076" y="1977.8283">: int &#171;PK&#187;</text><text fill="#EEEEEE" font-family="'Verdana'" font-size="11.4583" lengthAdjust="spacing" textLength="95.7677" x="690.6771" y="2001.5832">#nombre: String</text><text fill="#EEEEEE" font-family="'Verdana'" font-size="11.4583" lengthAdjust="spacing" textLength="117.6717" x="690.6771" y="2025.338">#precio: BigDecimal</text><text fill="#EEEEEE" font-family="'Verdana'" font-size="11.4583" lengthAdjust="spacing" textLength="177.9007" x="690.6771" y="2049.0929">#categoria: CategoriaProducto</text><text fill="#EEEEEE" font-family="'Verdana'" font-size="11.4583" lengthAdjust="spacing" textLength="62.4502" x="690.6771" y="2072.8478">#stock: int</text><text fill="#EEEEEE" font-family="'Verdana'" font-size="11.4583" lengthAdjust="spacing" textLength="97.7036" x="690.6771" y="2096.6027">#activo: boolean</text><line style="stroke:#304D6D;stroke-width:1.0417;" x1="680.2604" x2="1109.3193" y1="2108.68" y2="2108.68"/><text fill="#EEEEEE" font-family="'Verdana'" font-size="11.4583" lengthAdjust="spacing" textLength="408.2255" x="690.6771" y="2156.6124">+Producto(nombre: String, precio: double, categoria: String, stock: int)</text><line style="stroke:#304D6D;stroke-width:1.0417;stroke-dasharray:1.0417,2.0833;" x1="680.2604" x2="849.4606" y1="2128.8908" y2="2128.8908"/><text fill="#EEEEEE" font-family="'Verdana'" font-size="11.4583" lengthAdjust="spacing" textLength="80.2419" x="854.6689" y="2132.3367">Constructores</text><line style="stroke:#304D6D;stroke-width:1.0417;stroke-dasharray:1.0417,2.0833;" x1="940.1191" x2="1109.3193" y1="2128.8908" y2="2128.8908"/><text fill="#EEEEEE" font-family="'Verdana'" font-size="11.4583" lengthAdjust="spacing" textLength="70.4508" x="690.6771" y="2208.2889">+getId(): int</text><text fill="#EEEEEE" font-family="'Verdana'" font-size="11.4583" lengthAdjust="spacing" textLength="124.8332" x="690.6771" y="2232.0438">+getNombre(): String</text><text fill="#EEEEEE" font-family="'Verdana'" font-size="11.4583" lengthAdjust="spacing" textLength="119.076" x="690.6771" y="2255.7986">+getPrecio(): double</text><text fill="#EEEEEE" font-family="'Verdana'" font-size="11.4583" lengthAdjust="spacing" textLength="207.3578" x="690.6771" y="2279.5535">+getCategoria(): CategoriaProducto</text><text fill="#EEEEEE" font-family="'Verdana'" font-size="11.4583" lengthAdjust="spacing" textLength="91.51" x="690.6771" y="2303.3084">+getStock(): int</text><text fill="#EEEEEE" font-family="'Verdana'" font-size="11.4583" lengthAdjust="spacing" textLength="116.6143" x="690.6771" y="2327.0633">+isActivo(): boolean</text><line style="stroke:#304D6D;stroke-width:1.0417;stroke-dasharray:1.0417,2.0833;" x1="680.2604" x2="868.2594" y1="2180.5672" y2="2180.5672"/><text fill="#EEEEEE" font-family="'Verdana'" font-size="11.4583" lengthAdjust="spacing" textLength="42.6442" x="873.4677" y="2184.0132">Getters</text><line style="stroke:#304D6D;stroke-width:1.0417;stroke-dasharray:1.0417,2.0833;" x1="921.3203" x2="1109.3193" y1="2180.5672" y2="2180.5672"/><text fill="#EEEEEE" font-family="'Verdana'" font-size="11.4583" lengthAdjust="spacing" textLength="199.7487" x="690.6771" y="2378.7397">+setNombre(nombre: String): void</text><text fill="#EEEEEE" font-family="'Verdana'" font-size="11.4583" lengthAdjust="spacing" textLength="185.051" x="690.6771" y="2402.4946">+setPrecio(precio: double): void</text><text fill="#EEEEEE" font-family="'Verdana'" font-size="11.4583" lengthAdjust="spacing" textLength="219.3309" x="690.6771" y="2426.2495">+setCategoria(categoria: String): void</text><text fill="#EEEEEE" font-family="'Verdana'" font-size="11.4583" lengthAdjust="spacing" textLength="152.3656" x="690.6771" y="2450.0044">+setStock(stock: int): void</text><text fill="#EEEEEE" font-family="'Verdana'" font-size="11.4583" lengthAdjust="spacing" textLength="191.5131" x="690.6771" y="2473.7593">+setActivo(activo: boolean): void</text><line style="stroke:#304D6D;stroke-width:1.0417;stroke-dasharray:1.0417,2.0833;" x1="680.2604" x2="869.0622" y1="2351.0181" y2="2351.0181"/><text fill="#EEEEEE" font-family="'Verdana'" font-size="11.4583" lengthAdjust="spacing" textLength="41.0385" x="874.2706" y="2354.464">Setters</text><line style="stroke:#304D6D;stroke-width:1.0417;stroke-dasharray:1.0417,2.0833;" x1="920.5174" x2="1109.3193" y1="2351.0181" y2="2351.0181"/><text fill="#EEEEEE" font-family="'Verdana'" font-size="11.4583" lengthAdjust="spacing" textLength="210.4853" x="690.6771" y="2525.4357">+actualizarStock(cantidad: int): void</text><text fill="#EEEEEE" font-family="'Verdana'" font-size="11.4583" lengthAdjust="spacing" textLength="349.4624" x="690.6771" y="2549.1906">+validarDisponibilidad(cantidadRequerida: Integer): boolean</text><text fill="#EEEEEE" font-family="'Verdana'" font-size="11.4583" font-style="italic" lengthAdjust="spacing" textLength="152.0915" x="690.6771" y="2572.9455">+mostrarDetalles(): String</text><line style="stroke:#304D6D;stroke-width:1.0417;stroke-dasharray:1.0417,2.0833;" x1="680.2604" x2="858.2893" y1="2497.714" y2="2497.714"/><text fill="#EEEEEE" font-family="'Verdana'" font-size="11.4583" lengthAdjust="spacing" textLength="62.5844" x="863.4976" y="2501.16">Controllers</text><line style="stroke:#304D6D;stroke-width:1.0417;stroke-dasharray:1.0417,2.0833;" x1="931.2904" x2="1109.3193" y1="2497.714" y2="2497.714"/></g><!--class Venta--><g class="entity" data-entity="Venta" data-source-line="65" data-uid="ent0006" id="entity_Venta"><rect fill="url(#g1d5982hfxuuxr1)" height="633.4554" rx="4.1667" ry="4.1667" style="stroke:#304D6D;stroke-width:1.0417;" width="380.1615" x="704.7083" y="646.3437"/><rect fill="url(#g1d5982hfxuuxr2)" height="34.1715" rx="4.1667" ry="4.1667" style="stroke:url(#g1d5982hfxuuxr2);stroke-width:1.0417;" width="380.1615" x="704.7083" y="646.3437"/><rect fill="url(#g1d5982hfxuuxr2)" height="4.1667" style="stroke:url(#g1d5982hfxuuxr2);stroke-width:1.0417;" width="380.1615" x="704.7083" y="676.3486"/><rect fill="none" height="633.4554" rx="4.1667" ry="4.1667" style="stroke:#304D6D;stroke-width:1.0417;" width="380.1615" x="704.7083" y="646.3437"/><ellipse cx="868.061" cy="663.4295" fill="#B8B8B8" rx="10.4167" ry="10.4167" style="stroke:#6B6B6B;stroke-width:1.0417;"/><path d="M869.9653,667.8566 Q869.5422,668.0682 869.0702,668.1821 Q868.5982,668.2961 868.0936,668.2961 Q866.2381,668.2961 865.2616,667.0916 Q864.3013,665.8709 864.3013,663.576 Q864.3013,661.2648 865.2616,660.0604 Q866.2381,658.8397 868.0936,658.8397 Q868.5982,658.8397 869.0702,658.9536 Q869.5584,659.0513 869.9653,659.2791 L869.9653,661.2811 Q869.5096,660.8579 869.0702,660.6626 Q868.6307,660.451 868.175,660.451 Q867.1821,660.451 866.6776,661.2485 Q866.173,662.0298 866.173,663.576 Q866.173,665.106 866.6776,665.8872 Q867.1821,666.6685 868.175,666.6685 Q868.6307,666.6685 869.0702,666.4731 Q869.5096,666.2778 869.9653,665.8547 L869.9653,667.8566 Z " fill="#FFFFFF"/><ellipse cx="887.8527" cy="662.9087" fill="#84BE84" rx="-2.0833" ry="-2.0833" style="stroke:#038048;stroke-width:1.0417;"/><text fill="#EEEEEE" font-family="'Verdana'" font-size="11.4583" lengthAdjust="spacing" textLength="33.6644" x="894.1027" y="667.3963">Venta</text><line style="stroke:#304D6D;stroke-width:1.0417;" x1="705.75" x2="1083.8282" y1="680.5153" y2="680.5153"/><text fill="#EEEEEE" font-family="'Verdana'" font-size="11.4583" lengthAdjust="spacing" textLength="4.1346" x="716.1667" y="700.5262">-</text><text fill="#EEEEEE" font-family="'Verdana'" font-size="11.4583" font-weight="bold" lengthAdjust="spacing" textLength="12.1297" x="720.3013" y="700.5262">id</text><text fill="#EEEEEE" font-family="'Verdana'" font-size="11.4583" lengthAdjust="spacing" textLength="54.5278" x="732.431" y="700.5262">: int &#171;PK&#187;</text><text fill="#EEEEEE" font-family="'Verdana'" font-size="11.4583" lengthAdjust="spacing" textLength="4.1346" x="716.1667" y="724.2811">-</text><text fill="#EEEEEE" font-family="'Verdana'" font-size="11.4583" font-weight="bold" lengthAdjust="spacing" textLength="57.5714" x="720.3013" y="724.2811">idCliente</text><text fill="#EEEEEE" font-family="'Verdana'" font-size="11.4583" lengthAdjust="spacing" textLength="54.2089" x="777.8727" y="724.2811">: int &#171;FK&#187;</text><text fill="#EEEEEE" font-family="'Verdana'" font-size="11.4583" lengthAdjust="spacing" textLength="226.4699" x="716.1667" y="748.0359">-productosVenta: List&lt;ProductoVenta&gt;</text><text fill="#EEEEEE" font-family="'Verdana'" font-size="11.4583" lengthAdjust="spacing" textLength="123.3841" x="716.1667" y="771.7908">-subtotal: BigDecimal</text><text fill="#EEEEEE" font-family="'Verdana'" font-size="11.4583" lengthAdjust="spacing" textLength="136.0509" x="716.1667" y="795.5457">-impuestos: BigDecimal</text><text fill="#EEEEEE" font-family="'Verdana'" font-size="11.4583" lengthAdjust="spacing" textLength="102.8788" x="716.1667" y="819.3006">-total: BigDecimal</text><text fill="#EEEEEE" font-family="'Verdana'" font-size="11.4583" lengthAdjust="spacing" textLength="179.5232" x="716.1667" y="843.0555">-fechaCreacion: LocalDateTime</text><text fill="#EEEEEE" font-family="'Verdana'" font-size="11.4583" lengthAdjust="spacing" textLength="123.1267" x="716.1667" y="866.8104">-estado: EstadoVenta</text><line style="stroke:#304D6D;stroke-width:1.0417;" x1="705.75" x2="1083.8282" y1="878.8877" y2="878.8877"/><text fill="#EEEEEE" font-family="'Verdana'" font-size="11.4583" lengthAdjust="spacing" textLength="257.46" x="716.1667" y="926.8201">+Venta(idCliente: int, fecha: LocalDateTime)</text><line style="stroke:#304D6D;stroke-width:1.0417;stroke-dasharray:1.0417,2.0833;" x1="705.75" x2="852.9846" y1="899.0985" y2="899.0985"/><text fill="#EEEEEE" font-family="'Verdana'" font-size="11.4583" lengthAdjust="spacing" textLength="73.1923" x="858.1929" y="902.5444">Constructors</text><line style="stroke:#304D6D;stroke-width:1.0417;stroke-dasharray:1.0417,2.0833;" x1="936.5936" x2="1083.8282" y1="899.0985" y2="899.0985"/><text fill="#EEEEEE" font-family="'Verdana'" font-size="11.4583" lengthAdjust="spacing" textLength="70.4508" x="716.1667" y="978.4966">+getId(): int</text><text fill="#EEEEEE" font-family="'Verdana'" font-size="11.4583" lengthAdjust="spacing" textLength="110.6725" x="716.1667" y="1002.2514">+getIdCliente(): int</text><text fill="#EEEEEE" font-family="'Verdana'" font-size="11.4583" lengthAdjust="spacing" textLength="259.3287" x="716.1667" y="1026.0063">+getProductosVenta(): List&lt;ProductoVenta&gt;</text><text fill="#EEEEEE" font-family="'Verdana'" font-size="11.4583" lengthAdjust="spacing" textLength="157.9102" x="716.1667" y="1049.7612">+getSubtotal(): BigDecimal</text><text fill="#EEEEEE" font-family="'Verdana'" font-size="11.4583" lengthAdjust="spacing" textLength="169.4692" x="716.1667" y="1073.5161">+getImpuestos(): BigDecimal</text><text fill="#EEEEEE" font-family="'Verdana'" font-size="11.4583" lengthAdjust="spacing" textLength="138.6078" x="716.1667" y="1097.271">+getTotal(): BigDecimal</text><text fill="#EEEEEE" font-family="'Verdana'" font-size="11.4583" lengthAdjust="spacing" textLength="215.3025" x="716.1667" y="1121.0259">+getFechaCreacion(): LocalDateTime</text><text fill="#EEEEEE" font-family="'Verdana'" font-size="11.4583" lengthAdjust="spacing" textLength="156.5394" x="716.1667" y="1144.7807">+getEstado(): EstadoVenta</text><line style="stroke:#304D6D;stroke-width:1.0417;stroke-dasharray:1.0417,2.0833;" x1="705.75" x2="868.2586" y1="950.7749" y2="950.7749"/><text fill="#EEEEEE" font-family="'Verdana'" font-size="11.4583" lengthAdjust="spacing" textLength="42.6442" x="873.467" y="954.2208">Getters</text><line style="stroke:#304D6D;stroke-width:1.0417;stroke-dasharray:1.0417,2.0833;" x1="921.3196" x2="1083.8282" y1="950.7749" y2="950.7749"/><text fill="#EEEEEE" font-family="'Verdana'" font-size="11.4583" lengthAdjust="spacing" textLength="357.2449" x="716.1667" y="1196.4572">+agregarProducto(producto: Producto, cantidad: int): boolean</text><text fill="#EEEEEE" font-family="'Verdana'" font-size="11.4583" lengthAdjust="spacing" textLength="288.8306" x="716.1667" y="1220.2121">+removerProducto(idProductoVenta: int): boolean</text><text fill="#EEEEEE" font-family="'Verdana'" font-size="11.4583" lengthAdjust="spacing" textLength="145.5455" x="716.1667" y="1243.9669">+calcularTotal(): boolean</text><text fill="#EEEEEE" font-family="'Verdana'" font-size="11.4583" lengthAdjust="spacing" textLength="151.1347" x="716.1667" y="1267.7218">+finalizarVenta(): boolean</text><line style="stroke:#304D6D;stroke-width:1.0417;stroke-dasharray:1.0417,2.0833;" x1="705.75" x2="858.2886" y1="1168.7355" y2="1168.7355"/><text fill="#EEEEEE" font-family="'Verdana'" font-size="11.4583" lengthAdjust="spacing" textLength="62.5844" x="863.4969" y="1172.1815">Controllers</text><line style="stroke:#304D6D;stroke-width:1.0417;stroke-dasharray:1.0417,2.0833;" x1="931.2897" x2="1083.8282" y1="1168.7355" y2="1168.7355"/></g><!--class ProductoVenta--><g class="entity" data-entity="ProductoVenta" data-source-line="93" data-uid="ent0007" id="entity_ProductoVenta"><rect fill="url(#g1d5982hfxuuxr1)" height="518.8477" rx="4.1667" ry="4.1667" style="stroke:#304D6D;stroke-width:1.0417;" width="497.9787" x="645.8021" y="1342.2917"/><rect fill="url(#g1d5982hfxuuxr2)" height="34.1715" rx="4.1667" ry="4.1667" style="stroke:url(#g1d5982hfxuuxr2);stroke-width:1.0417;" width="497.9787" x="645.8021" y="1342.2917"/><rect fill="url(#g1d5982hfxuuxr2)" height="4.1667" style="stroke:url(#g1d5982hfxuuxr2);stroke-width:1.0417;" width="497.9787" x="645.8021" y="1372.2965"/><rect fill="none" height="518.8477" rx="4.1667" ry="4.1667" style="stroke:#304D6D;stroke-width:1.0417;" width="497.9787" x="645.8021" y="1342.2917"/><ellipse cx="842.5787" cy="1359.3774" fill="#B8B8B8" rx="10.4167" ry="10.4167" style="stroke:#6B6B6B;stroke-width:1.0417;"/><path d="M844.483,1363.8045 Q844.0598,1364.0161 843.5878,1364.13 Q843.1158,1364.244 842.6112,1364.244 Q840.7557,1364.244 839.7792,1363.0396 Q838.8189,1361.8188 838.8189,1359.5239 Q838.8189,1357.2127 839.7792,1356.0083 Q840.7557,1354.7876 842.6112,1354.7876 Q843.1158,1354.7876 843.5878,1354.9015 Q844.0761,1354.9992 844.483,1355.2271 L844.483,1357.229 Q844.0272,1356.8058 843.5878,1356.6105 Q843.1483,1356.3989 842.6926,1356.3989 Q841.6998,1356.3989 841.1952,1357.1965 Q840.6906,1357.9777 840.6906,1359.5239 Q840.6906,1361.0539 841.1952,1361.8351 Q841.6998,1362.6164 842.6926,1362.6164 Q843.1483,1362.6164 843.5878,1362.4211 Q844.0272,1362.2257 844.483,1361.8026 L844.483,1363.8045 Z " fill="#FFFFFF"/><ellipse cx="862.3703" cy="1358.8566" fill="#84BE84" rx="-2.0833" ry="-2.0833" style="stroke:#038048;stroke-width:1.0417;"/><text fill="#EEEEEE" font-family="'Verdana'" font-size="11.4583" lengthAdjust="spacing" textLength="84.6339" x="868.6203" y="1363.3442">ProductoVenta</text><line style="stroke:#304D6D;stroke-width:1.0417;" x1="646.8438" x2="1142.7391" y1="1376.4632" y2="1376.4632"/><text fill="#EEEEEE" font-family="'Verdana'" font-size="11.4583" lengthAdjust="spacing" textLength="4.1346" x="657.2604" y="1396.4741">-</text><text fill="#EEEEEE" font-family="'Verdana'" font-size="11.4583" font-weight="bold" lengthAdjust="spacing" textLength="12.1297" x="661.395" y="1396.4741">id</text><text fill="#EEEEEE" font-family="'Verdana'" font-size="11.4583" lengthAdjust="spacing" textLength="54.5278" x="673.5248" y="1396.4741">: int &#171;PK&#187;</text><text fill="#EEEEEE" font-family="'Verdana'" font-size="11.4583" lengthAdjust="spacing" textLength="4.1346" x="657.2604" y="1420.229">-</text><text fill="#EEEEEE" font-family="'Verdana'" font-size="11.4583" font-weight="bold" lengthAdjust="spacing" textLength="70.5516" x="661.395" y="1420.229">idProducto</text><text fill="#EEEEEE" font-family="'Verdana'" font-size="11.4583" lengthAdjust="spacing" textLength="54.2089" x="731.9466" y="1420.229">: int &#171;FK&#187;</text><text fill="#EEEEEE" font-family="'Verdana'" font-size="11.4583" lengthAdjust="spacing" textLength="4.1346" x="657.2604" y="1443.9839">-</text><text fill="#EEEEEE" font-family="'Verdana'" font-size="11.4583" font-weight="bold" lengthAdjust="spacing" textLength="50.1358" x="661.395" y="1443.9839">idVenta</text><text fill="#EEEEEE" font-family="'Verdana'" font-size="11.4583" lengthAdjust="spacing" textLength="54.2089" x="711.5308" y="1443.9839">: int &#171;FK&#187;</text><text fill="#EEEEEE" font-family="'Verdana'" font-size="11.4583" lengthAdjust="spacing" textLength="76.4038" x="657.2604" y="1467.7387">-cantidad: int</text><text fill="#EEEEEE" font-family="'Verdana'" font-size="11.4583" lengthAdjust="spacing" textLength="131.4687" x="657.2604" y="1491.4936">-precioUnitario: double</text><text fill="#EEEEEE" font-family="'Verdana'" font-size="11.4583" lengthAdjust="spacing" textLength="97.3958" x="657.2604" y="1515.2485">-subtotal: double</text><line style="stroke:#304D6D;stroke-width:1.0417;" x1="646.8438" x2="1142.7391" y1="1527.3258" y2="1527.3258"/><text fill="#EEEEEE" font-family="'Verdana'" font-size="11.4583" lengthAdjust="spacing" textLength="475.0621" x="657.2604" y="1575.2583">+ProductoVenta(idProducto: int, idVenta: int, cantidad: int, precioUnitario: double)</text><line style="stroke:#304D6D;stroke-width:1.0417;stroke-dasharray:1.0417,2.0833;" x1="646.8438" x2="852.9869" y1="1547.5366" y2="1547.5366"/><text fill="#EEEEEE" font-family="'Verdana'" font-size="11.4583" lengthAdjust="spacing" textLength="73.1923" x="858.1953" y="1550.9826">Constructors</text><line style="stroke:#304D6D;stroke-width:1.0417;stroke-dasharray:1.0417,2.0833;" x1="936.5959" x2="1142.7391" y1="1547.5366" y2="1547.5366"/><text fill="#EEEEEE" font-family="'Verdana'" font-size="11.4583" lengthAdjust="spacing" textLength="70.4508" x="657.2604" y="1626.9347">+getId(): int</text><text fill="#EEEEEE" font-family="'Verdana'" font-size="11.4583" lengthAdjust="spacing" textLength="121.4203" x="657.2604" y="1650.6896">+getIdProducto(): int</text><text fill="#EEEEEE" font-family="'Verdana'" font-size="11.4583" lengthAdjust="spacing" textLength="104.1153" x="657.2604" y="1674.4445">+getIdVenta(): int</text><text fill="#EEEEEE" font-family="'Verdana'" font-size="11.4583" lengthAdjust="spacing" textLength="111.3271" x="657.2604" y="1698.1994">+getCantidad(): int</text><text fill="#EEEEEE" font-family="'Verdana'" font-size="11.4583" lengthAdjust="spacing" textLength="164.3275" x="657.2604" y="1721.9542">+getPrecioUnitario(): double</text><text fill="#EEEEEE" font-family="'Verdana'" font-size="11.4583" lengthAdjust="spacing" textLength="131.9219" x="657.2604" y="1745.7091">+getSubtotal(): double</text><line style="stroke:#304D6D;stroke-width:1.0417;stroke-dasharray:1.0417,2.0833;" x1="646.8438" x2="868.261" y1="1599.2131" y2="1599.2131"/><text fill="#EEEEEE" font-family="'Verdana'" font-size="11.4583" lengthAdjust="spacing" textLength="42.6442" x="873.4693" y="1602.659">Getters</text><line style="stroke:#304D6D;stroke-width:1.0417;stroke-dasharray:1.0417,2.0833;" x1="921.3219" x2="1142.7391" y1="1599.2131" y2="1599.2131"/><text fill="#EEEEEE" font-family="'Verdana'" font-size="11.4583" lengthAdjust="spacing" textLength="191.6026" x="657.2604" y="1797.3856">+setCantidad(cantidad: int): void</text><line style="stroke:#304D6D;stroke-width:1.0417;stroke-dasharray:1.0417,2.0833;" x1="646.8438" x2="869.0639" y1="1769.6639" y2="1769.6639"/><text fill="#EEEEEE" font-family="'Verdana'" font-size="11.4583" lengthAdjust="spacing" textLength="41.0385" x="874.2722" y="1773.1098">Setters</text><line style="stroke:#304D6D;stroke-width:1.0417;stroke-dasharray:1.0417,2.0833;" x1="920.519" x2="1142.7391" y1="1769.6639" y2="1769.6639"/><text fill="#EEEEEE" font-family="'Verdana'" font-size="11.4583" lengthAdjust="spacing" textLength="158.0892" x="657.2604" y="1849.062">+calcularSubtotal(): double</text><line style="stroke:#304D6D;stroke-width:1.0417;stroke-dasharray:1.0417,2.0833;" x1="646.8438" x2="858.2909" y1="1821.3403" y2="1821.3403"/><text fill="#EEEEEE" font-family="'Verdana'" font-size="11.4583" lengthAdjust="spacing" textLength="62.5844" x="863.4992" y="1824.7863">Controllers</text><line style="stroke:#304D6D;stroke-width:1.0417;stroke-dasharray:1.0417,2.0833;" x1="931.292" x2="1142.7391" y1="1821.3403" y2="1821.3403"/></g><!--class ProductoElectronica--><g class="entity" data-entity="ProductoElectronica" data-source-line="116" data-uid="ent0008" id="entity_ProductoElectronica"><rect fill="url(#g1d5982hfxuuxr1)" height="305.0537" rx="4.1667" ry="4.1667" style="stroke:#304D6D;stroke-width:1.0417;" width="833.3252" x="58.3333" y="2647.5208"/><rect fill="url(#g1d5982hfxuuxr2)" height="34.1715" rx="4.1667" ry="4.1667" style="stroke:url(#g1d5982hfxuuxr2);stroke-width:1.0417;" width="833.3252" x="58.3333" y="2647.5208"/><rect fill="url(#g1d5982hfxuuxr2)" height="4.1667" style="stroke:url(#g1d5982hfxuuxr2);stroke-width:1.0417;" width="833.3252" x="58.3333" y="2677.5257"/><rect fill="none" height="305.0537" rx="4.1667" ry="4.1667" style="stroke:#304D6D;stroke-width:1.0417;" width="833.3252" x="58.3333" y="2647.5208"/><ellipse cx="407.7385" cy="2664.6066" fill="#B8B8B8" rx="10.4167" ry="10.4167" style="stroke:#6B6B6B;stroke-width:1.0417;"/><path d="M409.6428,2669.0337 Q409.2196,2669.2453 408.7476,2669.3592 Q408.2756,2669.4731 407.771,2669.4731 Q405.9156,2669.4731 404.939,2668.2687 Q403.9787,2667.048 403.9787,2664.7531 Q403.9787,2662.4419 404.939,2661.2375 Q405.9156,2660.0168 407.771,2660.0168 Q408.2756,2660.0168 408.7476,2660.1307 Q409.2359,2660.2284 409.6428,2660.4562 L409.6428,2662.4582 Q409.1871,2662.035 408.7476,2661.8397 Q408.3082,2661.6281 407.8524,2661.6281 Q406.8596,2661.6281 406.355,2662.4256 Q405.8505,2663.2069 405.8505,2664.7531 Q405.8505,2666.283 406.355,2667.0643 Q406.8596,2667.8455 407.8524,2667.8455 Q408.3082,2667.8455 408.7476,2667.6502 Q409.1871,2667.4549 409.6428,2667.0317 L409.6428,2669.0337 Z " fill="#FFFFFF"/><ellipse cx="427.5302" cy="2664.0858" fill="#84BE84" rx="-2.0833" ry="-2.0833" style="stroke:#038048;stroke-width:1.0417;"/><text fill="#EEEEEE" font-family="'Verdana'" font-size="11.4583" lengthAdjust="spacing" textLength="114.7232" x="433.7802" y="2668.5734">ProductoElectronica</text><line style="stroke:#304D6D;stroke-width:1.0417;" x1="59.375" x2="890.6169" y1="2681.6924" y2="2681.6924"/><line style="stroke:#304D6D;stroke-width:1.0417;" x1="59.375" x2="890.6169" y1="2690.0257" y2="2690.0257"/><text fill="#EEEEEE" font-family="'Verdana'" font-size="11.4583" lengthAdjust="spacing" textLength="810.4085" x="69.7917" y="2737.9582">+ProductoElectronica(id: int, nombre: String, precio: BigDecimal, categoria: String, stock: int, activo: boolean, marca: String, modelo: String)</text><line style="stroke:#304D6D;stroke-width:1.0417;stroke-dasharray:1.0417,2.0833;" x1="59.375" x2="429.6666" y1="2710.2365" y2="2710.2365"/><text fill="#EEEEEE" font-family="'Verdana'" font-size="11.4583" lengthAdjust="spacing" textLength="80.2419" x="434.875" y="2713.6824">Constructores</text><line style="stroke:#304D6D;stroke-width:1.0417;stroke-dasharray:1.0417,2.0833;" x1="520.3252" x2="890.6169" y1="2710.2365" y2="2710.2365"/><text fill="#EEEEEE" font-family="'Verdana'" font-size="11.4583" lengthAdjust="spacing" textLength="113.9959" x="69.7917" y="2789.6346">+getMarca(): String</text><text fill="#EEEEEE" font-family="'Verdana'" font-size="11.4583" lengthAdjust="spacing" textLength="120.4692" x="69.7917" y="2813.3895">+getModelo(): String</text><line style="stroke:#304D6D;stroke-width:1.0417;stroke-dasharray:1.0417,2.0833;" x1="59.375" x2="448.4655" y1="2761.9129" y2="2761.9129"/><text fill="#EEEEEE" font-family="'Verdana'" font-size="11.4583" lengthAdjust="spacing" textLength="42.6442" x="453.6738" y="2765.3589">Getters</text><line style="stroke:#304D6D;stroke-width:1.0417;stroke-dasharray:1.0417,2.0833;" x1="501.5264" x2="890.6169" y1="2761.9129" y2="2761.9129"/><text fill="#EEEEEE" font-family="'Verdana'" font-size="11.4583" lengthAdjust="spacing" textLength="180.659" x="69.7917" y="2865.0659">+setMarca(marca: String): void</text><text fill="#EEEEEE" font-family="'Verdana'" font-size="11.4583" lengthAdjust="spacing" textLength="193.6056" x="69.7917" y="2888.8208">+setModelo(modelo: String): void</text><line style="stroke:#304D6D;stroke-width:1.0417;stroke-dasharray:1.0417,2.0833;" x1="59.375" x2="449.2683" y1="2837.3442" y2="2837.3442"/><text fill="#EEEEEE" font-family="'Verdana'" font-size="11.4583" lengthAdjust="spacing" textLength="41.0385" x="454.4767" y="2840.7902">Setters</text><line style="stroke:#304D6D;stroke-width:1.0417;stroke-dasharray:1.0417,2.0833;" x1="500.7235" x2="890.6169" y1="2837.3442" y2="2837.3442"/><text fill="#EEEEEE" font-family="'Verdana'" font-size="11.4583" lengthAdjust="spacing" textLength="217.5237" x="69.7917" y="2940.4972">+mostrarDetalles(): String &#171;override&#187;</text><line style="stroke:#304D6D;stroke-width:1.0417;stroke-dasharray:1.0417,2.0833;" x1="59.375" x2="438.4954" y1="2912.7756" y2="2912.7756"/><text fill="#EEEEEE" font-family="'Verdana'" font-size="11.4583" lengthAdjust="spacing" textLength="62.5844" x="443.7037" y="2916.2215">Controllers</text><line style="stroke:#304D6D;stroke-width:1.0417;stroke-dasharray:1.0417,2.0833;" x1="511.4965" x2="890.6169" y1="2912.7756" y2="2912.7756"/></g><!--class ProductoRopa--><g class="entity" data-entity="ProductoRopa" data-source-line="130" data-uid="ent0010" id="entity_ProductoRopa"><rect fill="url(#g1d5982hfxuuxr1)" height="305.0537" rx="4.1667" ry="4.1667" style="stroke:#304D6D;stroke-width:1.0417;" width="773.0515" x="928.0625" y="2647.5208"/><rect fill="url(#g1d5982hfxuuxr2)" height="34.1715" rx="4.1667" ry="4.1667" style="stroke:url(#g1d5982hfxuuxr2);stroke-width:1.0417;" width="773.0515" x="928.0625" y="2647.5208"/><rect fill="url(#g1d5982hfxuuxr2)" height="4.1667" style="stroke:url(#g1d5982hfxuuxr2);stroke-width:1.0417;" width="773.0515" x="928.0625" y="2677.5257"/><rect fill="none" height="305.0537" rx="4.1667" ry="4.1667" style="stroke:#304D6D;stroke-width:1.0417;" width="773.0515" x="928.0625" y="2647.5208"/><ellipse cx="1264.5742" cy="2664.6066" fill="#B8B8B8" rx="10.4167" ry="10.4167" style="stroke:#6B6B6B;stroke-width:1.0417;"/><path d="M1266.4785,2669.0337 Q1266.0554,2669.2453 1265.5834,2669.3592 Q1265.1113,2669.4731 1264.6068,2669.4731 Q1262.7513,2669.4731 1261.7748,2668.2687 Q1260.8145,2667.048 1260.8145,2664.7531 Q1260.8145,2662.4419 1261.7748,2661.2375 Q1262.7513,2660.0168 1264.6068,2660.0168 Q1265.1113,2660.0168 1265.5834,2660.1307 Q1266.0716,2660.2284 1266.4785,2660.4562 L1266.4785,2662.4582 Q1266.0228,2662.035 1265.5834,2661.8397 Q1265.1439,2661.6281 1264.6882,2661.6281 Q1263.6953,2661.6281 1263.1908,2662.4256 Q1262.6862,2663.2069 1262.6862,2664.7531 Q1262.6862,2666.283 1263.1908,2667.0643 Q1263.6953,2667.8455 1264.6882,2667.8455 Q1265.1439,2667.8455 1265.5834,2667.6502 Q1266.0228,2667.4549 1266.4785,2667.0317 L1266.4785,2669.0337 Z " fill="#FFFFFF"/><ellipse cx="1284.3659" cy="2664.0858" fill="#84BE84" rx="-2.0833" ry="-2.0833" style="stroke:#038048;stroke-width:1.0417;"/><text fill="#EEEEEE" font-family="'Verdana'" font-size="11.4583" lengthAdjust="spacing" textLength="80.2363" x="1290.6159" y="2668.5734">ProductoRopa</text><line style="stroke:#304D6D;stroke-width:1.0417;" x1="929.1042" x2="1700.0723" y1="2681.6924" y2="2681.6924"/><line style="stroke:#304D6D;stroke-width:1.0417;" x1="929.1042" x2="1700.0723" y1="2690.0257" y2="2690.0257"/><text fill="#EEEEEE" font-family="'Verdana'" font-size="11.4583" lengthAdjust="spacing" textLength="750.1348" x="939.5208" y="2737.9582">+ProductoRopa(id: int, nombre: String, precio: BigDecimal, categoria: String, stock: int, activo: boolean, talla: String, color: String)</text><line style="stroke:#304D6D;stroke-width:1.0417;stroke-dasharray:1.0417,2.0833;" x1="929.1042" x2="1269.2589" y1="2710.2365" y2="2710.2365"/><text fill="#EEEEEE" font-family="'Verdana'" font-size="11.4583" lengthAdjust="spacing" textLength="80.2419" x="1274.4673" y="2713.6824">Constructores</text><line style="stroke:#304D6D;stroke-width:1.0417;stroke-dasharray:1.0417,2.0833;" x1="1359.9175" x2="1700.0723" y1="2710.2365" y2="2710.2365"/><text fill="#EEEEEE" font-family="'Verdana'" font-size="11.4583" lengthAdjust="spacing" textLength="106.4651" x="939.5208" y="2789.6346">+getTalla(): String</text><text fill="#EEEEEE" font-family="'Verdana'" font-size="11.4583" lengthAdjust="spacing" textLength="108.9717" x="939.5208" y="2813.3895">+getColor(): String</text><line style="stroke:#304D6D;stroke-width:1.0417;stroke-dasharray:1.0417,2.0833;" x1="929.1042" x2="1288.0578" y1="2761.9129" y2="2761.9129"/><text fill="#EEEEEE" font-family="'Verdana'" font-size="11.4583" lengthAdjust="spacing" textLength="42.6442" x="1293.2661" y="2765.3589">Getters</text><line style="stroke:#304D6D;stroke-width:1.0417;stroke-dasharray:1.0417,2.0833;" x1="1341.1187" x2="1700.0723" y1="2761.9129" y2="2761.9129"/><text fill="#EEEEEE" font-family="'Verdana'" font-size="11.4583" lengthAdjust="spacing" textLength="161.8154" x="939.5208" y="2865.0659">+setTalla(talla: String): void</text><text fill="#EEEEEE" font-family="'Verdana'" font-size="11.4583" lengthAdjust="spacing" textLength="167.6341" x="939.5208" y="2888.8208">+setColor(color: String): void</text><line style="stroke:#304D6D;stroke-width:1.0417;stroke-dasharray:1.0417,2.0833;" x1="929.1042" x2="1288.8606" y1="2837.3442" y2="2837.3442"/><text fill="#EEEEEE" font-family="'Verdana'" font-size="11.4583" lengthAdjust="spacing" textLength="41.0385" x="1294.069" y="2840.7902">Setters</text><line style="stroke:#304D6D;stroke-width:1.0417;stroke-dasharray:1.0417,2.0833;" x1="1340.3158" x2="1700.0723" y1="2837.3442" y2="2837.3442"/><text fill="#EEEEEE" font-family="'Verdana'" font-size="11.4583" lengthAdjust="spacing" textLength="217.5237" x="939.5208" y="2940.4972">+mostrarDetalles(): String &#171;override&#187;</text><line style="stroke:#304D6D;stroke-width:1.0417;stroke-dasharray:1.0417,2.0833;" x1="929.1042" x2="1278.0877" y1="2912.7756" y2="2912.7756"/><text fill="#EEEEEE" font-family="'Verdana'" font-size="11.4583" lengthAdjust="spacing" textLength="62.5844" x="1283.296" y="2916.2215">Controllers</text><line style="stroke:#304D6D;stroke-width:1.0417;stroke-dasharray:1.0417,2.0833;" x1="1351.0888" x2="1700.0723" y1="2912.7756" y2="2912.7756"/></g><!--class EstadoVenta--><g class="entity" data-entity="EstadoVenta" data-source-line="146" data-uid="ent0012" id="entity_EstadoVenta"><rect fill="url(#g1d5982hfxuuxr1)" height="98.348" rx="4.1667" ry="4.1667" style="stroke:#304D6D;stroke-width:1.0417;" width="114.3387" x="554.2917" y="913.8958"/><rect fill="url(#g1d5982hfxuuxr2)" height="34.1715" rx="4.1667" ry="4.1667" style="stroke:url(#g1d5982hfxuuxr2);stroke-width:1.0417;" width="114.3387" x="554.2917" y="913.8958"/><rect fill="url(#g1d5982hfxuuxr2)" height="4.1667" style="stroke:url(#g1d5982hfxuuxr2);stroke-width:1.0417;" width="114.3387" x="554.2917" y="943.9007"/><rect fill="none" height="98.348" rx="4.1667" ry="4.1667" style="stroke:#304D6D;stroke-width:1.0417;" width="114.3387" x="554.2917" y="913.8958"/><ellipse cx="568.875" cy="930.9816" fill="#E19E4D" rx="10.4167" ry="10.4167" style="stroke:#945200;stroke-width:1.0417;"/><path d="M571.4141,935.6691 L565.7337,935.6691 L565.7337,926.5545 L571.4141,926.5545 L571.4141,928.1496 L567.5404,928.1496 L567.5404,930.1027 L571.0397,930.1027 L571.0397,931.6978 L567.5404,931.6978 L567.5404,934.0741 L571.4141,934.0741 L571.4141,935.6691 Z " fill="#FFFFFF"/><text fill="#EEEEEE" font-family="'Verdana'" font-size="11.4583" lengthAdjust="spacing" textLength="72.672" x="587.625" y="934.9484">EstadoVenta</text><line style="stroke:#304D6D;stroke-width:1.0417;" x1="555.3333" x2="667.5887" y1="948.0674" y2="948.0674"/><text fill="#EEEEEE" font-family="'Verdana'" font-size="11.4583" lengthAdjust="spacing" textLength="80.6559" x="565.75" y="968.0783">PROCESANDO</text><text fill="#EEEEEE" font-family="'Verdana'" font-size="11.4583" lengthAdjust="spacing" textLength="78.9383" x="565.75" y="991.8332">COMPLETADA</text><line style="stroke:#304D6D;stroke-width:1.0417;" x1="555.3333" x2="667.5887" y1="1003.9105" y2="1003.9105"/></g><!--class Dreams--><!--class MenuClientes--><!--class MenuProductos--><!--class MenuVentas--><!--reverse link Producto to ProductoElectronica--><g class="link" data-entity-1="Producto" data-entity-2="ProductoElectronica" data-source-line="117" data-uid="lnk9" id="link_Producto_ProductoElectronica"><path d="M785.4375,2604.2917 C785.4375,2625.5208 785.4375,2627.5104 785.4375,2647.2083" fill="none" id="Producto-backto-ProductoElectronica" style="stroke:#446E9B;stroke-width:3.125;"/><polygon fill="none" points="785.4375,2585.5417,779.1875,2604.2917,791.6875,2604.2917,785.4375,2585.5417" style="stroke:#446E9B;stroke-width:3.125;"/></g><!--reverse link Producto to ProductoRopa--><g class="link" data-entity-1="Producto" data-entity-2="ProductoRopa" data-source-line="131" data-uid="lnk11" id="link_Producto_ProductoRopa"><path d="M1019.2083,2604.2917 C1019.2083,2625.5208 1019.2083,2627.5104 1019.2083,2647.2083" fill="none" id="Producto-backto-ProductoRopa" style="stroke:#446E9B;stroke-width:3.125;"/><polygon fill="none" points="1019.2083,2585.5417,1012.9583,2604.2917,1025.4583,2604.2917,1019.2083,2585.5417" style="stroke:#446E9B;stroke-width:3.125;"/></g><!--link Cliente to Venta--><g class="link" data-entity-1="Cliente" data-entity-2="Venta" data-source-line="198" data-uid="lnk18" id="link_Cliente_Venta"><path codeLine="198" d="M894.7917,584.1458 C894.7917,604.4688 894.7917,625.2292 894.7917,646.0521" fill="none" id="Cliente-Venta" style="stroke:#446E9B;stroke-width:3.125;"/><text fill="#FFFFFF" font-family="'Verdana'" font-size="12.5" lengthAdjust="spacing" textLength="41.6565" x="901.0417" y="606.9049">realiza</text><text fill="#FFFFFF" font-family="'Verdana'" font-size="12.5" lengthAdjust="spacing" textLength="7.9529" x="882.012" y="609.1096">1</text><text fill="#FFFFFF" font-family="'Verdana'" font-size="12.5" lengthAdjust="spacing" textLength="22.1497" x="867.2832" y="630.1792">0..*</text></g><!--link ProductoVenta to Producto--><g class="link" data-entity-1="ProductoVenta" data-entity-2="Producto" data-source-line="199" data-uid="lnk19" id="link_ProductoVenta_Producto"><path codeLine="199" d="M894.7917,1861.5208 C894.7917,1881.875 894.7917,1902.5833 894.7917,1923.3229" fill="none" id="ProductoVenta-Producto" style="stroke:#446E9B;stroke-width:3.125;"/><text fill="#FFFFFF" font-family="'Verdana'" font-size="12.5" lengthAdjust="spacing" textLength="63.678" x="901.0417" y="1884.2278">referencia</text><text fill="#FFFFFF" font-family="'Verdana'" font-size="12.5" lengthAdjust="spacing" textLength="7.9529" x="882.0386" y="1886.4155">1</text><text fill="#FFFFFF" font-family="'Verdana'" font-size="12.5" lengthAdjust="spacing" textLength="7.9529" x="882.0653" y="1907.0784">1</text></g><!--reverse link Venta to ProductoVenta--><g class="link" data-entity-1="Venta" data-entity-2="ProductoVenta" data-source-line="203" data-uid="lnk20" id="link_Venta_ProductoVenta"><path codeLine="203" d="M894.7917,1292.5521 C894.7917,1313.2396 894.7917,1321.4271 894.7917,1341.7917" fill="none" id="Venta-backto-ProductoVenta" style="stroke:#446E9B;stroke-width:3.125;"/><polygon fill="#446E9B" points="894.7917,1280.0521,890.625,1286.3021,894.7917,1292.5521,898.9583,1286.3021,894.7917,1280.0521" style="stroke:#446E9B;stroke-width:3.125;"/><text fill="#FFFFFF" font-family="'Verdana'" font-size="12.5" lengthAdjust="spacing" textLength="54.1199" x="901.0417" y="1302.7382">contiene</text><text fill="#FFFFFF" font-family="'Verdana'" font-size="12.5" lengthAdjust="spacing" textLength="7.9529" x="882.092" y="1304.585">1</text><text fill="#FFFFFF" font-family="'Verdana'" font-size="12.5" lengthAdjust="spacing" textLength="22.1497" x="867.1831" y="1325.7392">1..*</text></g><!--link EstadoVenta to Venta--><g class="link" data-entity-1="EstadoVenta" data-entity-2="Venta" data-source-line="218" data-uid="lnk22" id="link_EstadoVenta_Venta"><path codeLine="218" d="M669.1354,964.0312 C679.9792,964.0312 691.8438,964.0312 704.2813,964.0312" fill="none" id="EstadoVenta-Venta" style="stroke:#446E9B;stroke-width:3.125;"/><text fill="#FFFFFF" font-family="'Verdana'" font-size="12.5" lengthAdjust="spacing" textLength="26.7639" x="673.6875" y="981.884">est&#225;</text><text fill="#FFFFFF" font-family="'Verdana'" font-size="12.5" lengthAdjust="spacing" textLength="7.9529" x="682.0743" y="955.6684">1</text><text fill="#FFFFFF" font-family="'Verdana'" font-size="12.5" lengthAdjust="spacing" textLength="7.9529" x="683.3846" y="956.4404">1</text></g><!--SRC=[lLd1Sjis4BtdAr3xODcnbVJMQfnCNSbfFRKJZUta3f4h6MEIK05GQPBcO_8DlVNg7-i214Y294X5TQAB9U9XyVPXTx6W3rwyU46cF5koLIweOZmZ-EJ94uAV7zGTf43acaQGq4NnKDwpR4q5JKcKK2dFb19iaIkuY7Xsmpu2UTw0BMXqln8yp-8fJxWWIj0CJGh8L0EPi0pKXpKGBjGTBvOxqFpczCyS5CYA6bAwfoiWiG2Qod7AOqZ8_i_cGpuLc7BwbHxbjTdwyzJG9zE48H70EQJsEI57Hom-EfeGbYboUZh_u-NB1Y3ZwKB0XDoW_zcgCGWfPKbWZ4QARVY4B3XFW6R-w8dtSppMMoELo2F51Ve_7dlZJntz4OiDrUC6hMEVoM7J-c-W58WEkojG5_7eq1Xj3xqsY-ZX3WyDubml6mGmUMP4q80k6P3PJOYPB9VtNKLJ6yxYDhgWukiGmbfQZItgWXTRemHFQDozDMWafmdxICL5jkGYfH4crwXtVux9mCgVM_4x5ppMqT48uFsX0Dxl2-1ziXQ0T2VaLxQQuRUK9Wr0H1Mik61qGgRkg-FIW4h5e_js9Eq_RYQunLiAErTYdYyIEAupTv2AuVVBaBcXfH45iJQYr5M3-aKs-1ljHJUZxvfmrZDVzo2wyhArCS4vXQUrNNlCV4uwLQYokLWyefbYCOrxrjyWFgPYnkIQPsp1zA-ud7WDUAO9_3OX5rZ1Lo02U_EKVA8BZ7nay9caN7yJCr0KYSgE06kNY7TuGj2lF-0qm1ul5UvL6xUs0IdDEXDooQGwTL5gdZLdo7oXE3eGB2ydXANh7723PGzcoCOIeZiwnGP15rxanIEQp336RbaApVDQAYpZ4t9k_XhIsrUZZcWn5aQbVlPiDeGQH1whu5oujOA8kRTF6ZQqKqLLiPkb9mIaBWYu7Hi2tcvZxLLzxmpNuEuL_ORPE0qCRU5WWgy4hAWeZn4NrfFoPD57Xv_qtUag8EKRg2onsDEuVp9w6UK95QLAtR0boufgL6vc4nTk5Vv7FN0cUWk21ferUb6UbgsIee-EjnbJL5H7IB2AT0r_PS9wsjHsp6QkTSZ-ygWV1zW-NcANWHI6b57GEJwrV7jAGzs3lfwaNWqwC0DzH4bayFGSobQN9ZrymWbmda24fZCMKG9_ASZYO1-zSnjQMoDyEMjtsGFjQUk2S4nIAg8Qrjo4-KuNlYjjgQzbBUxH0SJ0rXV6FRB1hiskqt1bXoW9TajOadI9nlOBQeKf737NVFtjGaKR_xOnejslOIFz7cQd4BdLXlf2nBpYsIr22jiUrV2bmIpZ-_5TuyEyLphFyXI4QL6WyNO9SAZUYZHYPNxzPdf-S_PwziPxF7rpDRyylpsRdTNMTD-Ur2WqNdzj6Bmd-p-PJ-ljrpliycZtow-PcTuVnwLAL-ZJ7CM9sBgejmDl9ZJUzgI3Itn2Yef5d-jhkRcZxYWefqJeXAWrlttO161RQ7NXst8292p5hcnhAdfRHD39RZtB7duNGSl9MobQxpg69DqMMscwxGmdwjPiZAfXJxjbDIcwawR5pAq4BNkq8JMt0bPIRWLtEcv7meWOSCqgQFySwBf2hY5fLS435F24d4aUCJScyLQFPLOF51ZtydtlnpryIFQUZyT7U_PznGJlKSP1ykpWRLP2yP8PWniI90B12ITfZjT5-wP3Oj6dCRLcS3aBnaThBl0KH-beQepbfTtnmJF3oByZELxufppqDQyb2C0wgAcPfVnPKlDRCiGGsbpE8SVaRVN3EgLVGY2_ZAGF_oQA6QayovfaJTifJzTSCYjkAMf5_SXmDvhw32VO0c033XaOSPrMI3pIDl5nhDaQPH- -D5cGIqessBrha6ytXZLsI6PsueoEIfeF_sI73HT-TqAEPiLK_UFG38rSksLwHctlpe8FhOLIljE_4T_HUFV1TDDLPs9FIVtr4lzkYf-UGv9mJ7jf_k-5Wkl_MLM1A7CSNfVT0FPjEZ9HmaBc74McDXTG1n8pREkCOYIckfxZXc2I9ZfwHnolDdfr7Qu9_S1pvLnsMN2AdOrtlYAwfg0tD26vR4bXvrVdITj0DLQpKEofcsxhPdkk7IWcrbJsEwQEa3r9OAcAZAjtJnET70zVl6WjX6taLssIIR6waIBB90Yx4p77_Emi85MGwkfsQRQWgcnts1MIN_8iOTaznFy1]--></g></svg>